<svg width="39" height="38" xmlns="http://www.w3.org/2000/svg"><g fill="#433A83" fill-rule="nonzero"><path d="M36.782 30.374a2.35 2.35 0 00.936-1.998 2.365 2.365 0 00-1.146-1.892l-.01-13.826-2.437 1.591v12.23a2.367 2.367 0 00-1.137 1.879c-.044.768.296 1.51.913 1.99l-.922 1.192a5.796 5.796 0 00-1.291 3.558V38h1.986c.982 0 1.838-.65 2.08-1.577l.806-3.173V38h2.438v-2.874a5.81 5.81 0 00-1.302-3.574l-.914-1.178zM19.5 0L0 9.5l19.5 11.874L39 9.499 19.5 0z"/><path d="M20 24.122L8 16v4.17C8 22.39 15.056 29 20 29s12-6.61 12-8.83V16l-12 8.122z"/></g></svg>