<svg width="77" height="40" fill="none" xmlns="http://www.w3.org/2000/svg"><path d="M.252 9.32c.192-1.128.69-2.052 1.494-2.772.66-.588 1.11-.966 1.35-1.134.564-.396 1.086-.594 1.566-.594.252 0 .492.054.72.162.18.072.27.216.27.432 0 .084-.012.174-.036.27-.144.432-.456.768-.936 1.008-.804.384-1.242.6-1.314.648-.888.672-1.356 1.392-1.404 2.16-.048.648.078 1.206.378 1.674.156.252.402.45.738.594.3.096.606.198.918.306a.833.833 0 00.342.072c.264 0 .612-.168 1.044-.504.444-.348.774-.528.99-.54.288-.024.432.108.432.396 0 .312-.108.636-.324.972-.468.72-1.194 1.08-2.178 1.08-.516 0-1.11-.096-1.782-.288a3.032 3.032 0 01-1.71-1.206c-.408-.6-.612-1.29-.612-2.07 0-.216.018-.438.054-.666zm8.459 2.322c-.984-.564-1.476-1.458-1.476-2.682 0-.312.042-.618.126-.918.108-.384.306-.786.594-1.206.336-.468.522-.744.558-.828.18-.408.498-.612.954-.612.54 0 1.008.222 1.404.666.396.444.696 1.038.9 1.782.072.276.108.546.108.81 0 .936-.45 1.878-1.35 2.826-.216.228-.552.342-1.008.342-.324 0-.594-.06-.81-.18zm.576-1.782c.096.024.186.036.27.036.54 0 .81-.33.81-.99 0-.564-.21-1.08-.63-1.548a.222.222 0 00-.126-.036c-.192 0-.432.192-.72.576-.276.372-.414.738-.414 1.098 0 .456.27.744.81.864zm3.064-2.304c.012-.312.03-.636.054-.972.036-.336.168-.582.396-.738.18-.072.384-.108.612-.108.612 0 .918.216.918.648l-.072 1.764c-.024.708 0 1.296.072 1.764l.288 1.26c.156.528.342.792.558.792.072 0 .15-.024.234-.072.996-.684 1.494-1.716 1.494-3.096a3.97 3.97 0 00-.594-2.142c-.216-.348-.324-.66-.324-.936 0-.348.24-.522.72-.522.468 0 .882.264 1.242.792.324.468.498.96.522 1.476.072 1.236-.072 2.352-.432 3.348-.42 1.164-1.086 1.944-1.998 2.34a2.71 2.71 0 01-1.044.234c-.912 0-1.608-.588-2.088-1.764-.396-.948-.594-2.076-.594-3.384 0-.24.012-.468.036-.684zm6.951.864c-.024-.192-.12-.51-.288-.954-.156-.408-.234-.72-.234-.936 0-.288.108-.528.324-.72.216-.204.444-.306.684-.306.312 0 .582.15.81.45.228.288.342.63.342 1.026 0 .084-.006.168-.018.252.312-.048.69-.3 1.134-.756.408-.432.78-.648 1.116-.648.12 0 .246.018.378.054.504.204.756.402.756.594a.509.509 0 01-.126.306c-.228.324-.648.738-1.26 1.242-.6.492-1.026.924-1.278 1.296-.084.132-.138.348-.162.648-.012.3-.054.51-.126.63a.805.805 0 00-.09.396c0 .252.096.504.288.756.156.192.234.438.234.738 0 .444-.138.798-.414 1.062-.18.288-.45.432-.81.432a.87.87 0 01-.72-.342c-.204-.132-.294-.402-.27-.81.048-1.068-.042-2.538-.27-4.41zm8.788-2.466c.457.18.913.366 1.369.558.492.24.828.54 1.008.9a.323.323 0 01.053.198c0 .336-.113.576-.341.72a.729.729 0 01-.36.09c-.204 0-.588-.168-1.152-.504-.565-.336-1.009-.504-1.333-.504-.24 0-.474.066-.701.198a.347.347 0 00-.162.306c0 .168.096.36.288.576.203.216.383.354.54.414 1.248.444 2.195.966 2.843 1.566.216.204.325.486.325.846 0 .42-.133.846-.396 1.278-.253.432-.673.798-1.26 1.098a3.94 3.94 0 01-1.782.432c-1.08 0-1.837-.45-2.268-1.35a.557.557 0 01-.055-.252c0-.204.096-.39.288-.558.192-.18.396-.276.613-.288.168-.024.317.084.45.324.155.276.282.438.378.486.216.108.462.162.738.162.42 0 .786-.108 1.098-.324.323-.228.485-.522.485-.882 0-.276-.276-.54-.828-.792a205.25 205.25 0 00-1.818-.774c-.648-.336-1.098-.762-1.35-1.278a1.109 1.109 0 01-.108-.468c0-.54.342-1.062 1.026-1.566.648-.48 1.284-.72 1.909-.72.192 0 .36.036.503.108zm2.822 2.97c-.012-.816.228-1.494.72-2.034.492-.552 1.122-.828 1.89-.828.816 0 1.536.312 2.16.936.636.612.948 1.332.936 2.16-.108.336-.558.738-1.35 1.206-.984.588-1.53.936-1.638 1.044-.204.096-.306.198-.306.306 0 .192.132.366.396.522.264.144.498.216.702.216.396 0 .966-.192 1.71-.576a.805.805 0 01.342.684c0 .228-.072.438-.216.63a.84.84 0 01-.558.342c-.768.12-1.254.18-1.458.18-.408 0-.774-.072-1.098-.216-1.428-.636-2.172-2.16-2.232-4.572zm1.962.918c1.068-.048 1.716-.426 1.944-1.134a.639.639 0 00.072-.288c0-.252-.132-.456-.396-.612a1.701 1.701 0 00-.882-.234c-.24 0-.444.048-.612.144-.348.18-.522.558-.522 1.134 0 .636.132.966.396.99zm7.521-3.888c.456.18.912.366 1.368.558.492.24.828.54 1.008.9a.323.323 0 01.054.198c0 .336-.114.576-.342.72a.729.729 0 01-.36.09c-.204 0-.588-.168-1.152-.504-.564-.336-1.008-.504-1.332-.504-.24 0-.474.066-.702.198a.347.347 0 00-.162.306c0 .168.096.36.288.576.204.216.384.354.54.414 1.248.444 2.196.966 2.844 1.566.216.204.324.486.324.846 0 .42-.132.846-.396 1.278-.252.432-.672.798-1.26 1.098a3.94 3.94 0 01-1.782.432c-1.08 0-1.836-.45-2.268-1.35a.557.557 0 01-.054-.252c0-.204.096-.39.288-.558.192-.18.396-.276.612-.288.168-.024.318.084.45.324.156.276.282.438.378.486.216.108.462.162.738.162.42 0 .786-.108 1.098-.324.324-.228.486-.522.486-.882 0-.276-.276-.54-.828-.792a205.25 205.25 0 00-1.818-.774c-.648-.336-1.098-.762-1.35-1.278a1.109 1.109 0 01-.108-.468c0-.54.342-1.062 1.026-1.566.648-.48 1.284-.72 1.908-.72.192 0 .36.036.504.108z" fill="#8F9090"/><path d="M65.813 31.725c.612-3.733 1.987-11.202-2.81-15.923-.443-.515-1.304-1.141-2.267-1.582m0 0c-.228-1.879-1.775-3.382-3.462-4.24-3.602-1.834-7.362-1.74-10.956.043m14.418 4.197c-1.583-.724-3.441-.948-4.171.636-1.287 2.791 3.625 3.347 4.132.583.077-.421.086-.828.039-1.219z" stroke="#8F9090" stroke-width="2" stroke-miterlimit="1.5" stroke-linecap="round" stroke-linejoin="round"/><path d="M66.538 31.815c-.94-.944-2.318-3.276-2.98-4.417m2.98 4.417c.477-1.105 1.724-3.261 2.193-4.37l-2.193 4.37z" stroke="#8F9090" stroke-width="2" stroke-miterlimit="1.5" stroke-linecap="round" stroke-linejoin="round"/></svg>