<svg width="321" height="284" fill="none" xmlns="http://www.w3.org/2000/svg"><path d="M159.409 100.581c.202-.224.359-.494.539-.74 1.55-2.247 2.606-4.763 3.729-7.234 1.303-2.876 2.696-5.707 4.381-8.38.449-.719 1.033-1.123 1.887-1.168 1.932-.09 3.639-.741 5.054-2.09.584-.56.697-.56 1.281-.022.808.764 1.774 1.236 2.83 1.573a57.79 57.79 0 012.112.719c.809.292.899.382.876 1.258-.09 2.426.225 4.807.359 7.211.113 2 1.079 3.46 2.629 4.605a7.927 7.927 0 001.864 1.011c2.674 1.056 5.414 1.19 8.222.741 1.236-.202 2.202-.83 2.943-1.842a16.736 16.736 0 001.797-3.055c.832-1.752 1.798-3.415 2.831-5.077.135-.224.247-.561.562-.539.337.045.426.382.516.674.27.809.539 1.617.809 2.404.472 1.348 1.056 2.65 1.842 3.841 2.291 3.505 8.289 4.268 11.098.067 2.066-3.1 4.178-6.2 5.953-9.48.134-.27.224-.561.629-.696.112.337.022.607-.023.876-.247 1.393-.247 2.786-.112 4.156.18 1.842.831 3.505 2.224 4.785 2.493 2.336 6.515 2.808 9.48 1.1.651-.381.741-.56.359-1.302-.674-1.326-.651-2.673-.224-4.066.112-.36.247-.697.382-1.056 1.774-4.695 3.414-9.435 4.829-14.265 2.314-7.908 6.156-15.051 10.649-21.88.382-.585.853-1.056 1.482-1.37.225-.113.472-.315.742-.068.247.202.067.45 0 .651-.382 1.19-.742 2.404-1.146 3.595-1.258 3.796-2.696 7.548-3.841 11.367a7.968 7.968 0 00-.315 2.516c.022 1.145.494 2.022 1.438 2.65a9.929 9.929 0 004.246 1.64c.224.045.471.023.718.023.45 0 .697-.225.719-.674.023-.27.045-.54.023-.809a3.364 3.364 0 01.472-2.044c1.572-2.673 2.695-5.549 3.729-8.47.988-2.785 2.111-5.526 3.122-8.289 1.393-3.774-.853-7.638-4.74-8.154-1.775-.225-3.437.314-4.92 1.303-2.92 1.954-5.234 4.493-7.031 7.525-2.561 4.291-5.122 8.56-7.683 12.828-.18.292-.359.584-.561.853-.09.135-.225.292-.405.27-.247-.045-.292-.247-.292-.472-.157-1.865-.449-3.707-.404-5.571.112-3.774.719-7.503 1.527-11.165.54-2.381 1.146-4.74 1.775-7.099.18-.696.045-1.19-.494-1.595-.247-.18-.472-.382-.741-.539-1.955-1.1-4.067-1.46-6.291-1.303-.651.045-1.123.427-1.437 1.011-.382.719-.697 1.46-.876 2.269-.247 1.056-.472 2.112-.719 3.167-.674 3.056-1.505 6.066-1.842 9.166-.135 1.213-.135 2.449-.337 3.64-.921 5.862-1.685 11.748-2.382 17.656-.089.764-.381 1.326-.966 1.797a52.141 52.141 0 00-8.446 8.65c-.135.18-.292.381-.472.538-.27.248-.472.18-.607-.18a2.325 2.325 0 01-.112-1.1c.292-2.449.494-4.92.899-7.368.427-2.629 1.28-5.122 1.999-7.683.202-.697.315-1.393.292-2.112-.022-.876-.404-1.505-1.235-1.797-.45-.157-.899-.292-1.371-.404-1.393-.337-2.83-.293-4.246-.472-1.347-.18-2.403.27-3.212 1.325-3.527 4.628-6.986 9.278-9.637 14.467-.921 1.82-1.977 3.55-2.988 5.325-.359.629-.786 1.19-1.415 1.572-.405.247-.629.157-.719-.314a3.609 3.609 0 01-.045-.517c-.045-1.73.067-3.46.337-5.167.809-5.504 2.471-10.76 4.672-15.86.697-1.595 1.506-3.123 2.539-4.515 1.505-2 2.157-2.471 5.077-1.663 1.168.315 2.336.742 3.504 1.056 1.124.292 2.269.494 3.415.337 1.056-.135 1.73-.741 1.887-1.573.157-.876-.292-1.82-1.123-2.336-.494-.292-1.034-.494-1.595-.651-2.359-.764-4.808-1.213-7.256-1.573-3.347-.471-6.695-.36-10.064-.45-1.056-.021-1.91.45-2.584 1.236-.314.36-.561.764-.808 1.169-1.236 2.022-2.18 4.223-3.213 6.357-1.82 3.684-3.572 7.39-4.56 11.412-.045.157-.09.337-.157.472-.27.629-.607.764-1.214.472a4.71 4.71 0 01-1.392-1.011c-1.775-1.775-3.482-3.617-5.055-5.572-1.64-2.066-3.774-3.077-6.447-2.47a8.357 8.357 0 00-4.134 2.268c-3.751 3.73-2.561 8.739.674 10.873.854.562.854.674.427 1.573-.966 2.111-2.381 3.864-4.044 5.436-1.078 1.011-2.381 1.28-3.796.854-2.718-.831-3.999-2.92-4.538-5.504-.269-1.325-.337-2.696-.449-4.044-.202-2.853-.337-5.683-.562-8.536-.157-2.112-.202-2.134 1.64-3.078 2.404-1.213 3.684-3.212 3.752-5.863.09-2.606-1.079-4.65-3.325-6.02-.225-.135-.472-.27-.674-.45-.696-.562-1.528-.719-2.404-.674a8.812 8.812 0 00-2.291.45c-5.414 1.82-5.886 7.862-3.257 10.827.584.652 1.123 1.37 1.707 2.022.943 1.034 1.572 2.224 1.752 3.617.539 4.223.607 8.47-.292 12.647a11.518 11.518 0 01-1.595 3.842c-1.258 1.954-3.1 2.359-5.054 1.19-2.719-1.64-4.493-4.088-5.841-6.896-.449-.966-.427-1.01.449-1.662 2.898-2.134 3.842-5.122 2.763-8.537-1.505-4.807-7.525-5.84-10.715-3.55-4.358 3.123-4.201 9.57.404 12.334.786.472.988 1.056.899 1.864-.045.517-.225.989-.427 1.46-1.191 2.651-2.966 4.853-5.055 6.83-.516.494-1.168.808-1.819 1.123-.629.314-1.169.202-1.685-.225-1.168-.943-2.044-2.067-2.561-3.482-.494-1.37-.966-2.763-1.46-4.133-.315-.899-.562-1.82-.607-2.786-.09-2.134-.899-3.954-2.291-5.526-.292-.337-.562-.697-.831-1.033-.764-.966-.787-.966.067-1.82l.427-.427a48.31 48.31 0 009.525-13.254c2.156-4.425 4.088-8.94 5.975-13.501.427-1.034.629-2.157.742-3.258.089-.898-.203-1.662-.787-2.336-1.213-1.393-3.1-1.82-4.785-1.056-1.123.517-2.066 1.28-3.032 2.045-2.853 2.313-5.077 5.166-7.301 8.064-1.865 2.426-3.46 5.032-5.167 7.57-.225.338-.449.675-.741.967-.337.337-.607.247-.719-.225a6.095 6.095 0 01-.09-1.123c-.068-2.516.337-5.01.719-7.48.426-2.809 1.078-5.594 1.437-8.425.248-2.112.427-4.246.809-6.357.786-4.246 1.573-8.47 2.381-12.693.09-.494.135-.943-.089-1.393-1.101-2.179-2.067-4.425-3.325-6.537-.517-.876-1.146-1.685-2.045-2.246-1.235-.764-1.819-.517-2.156.876-.764 3.212-1.505 6.402-2.247 9.615-1.707 7.503-3.122 15.073-4.65 22.621-1.235 6.088-2.246 12.221-2.92 18.399-.27 2.471-.472 4.942-.809 7.39-.292 2.112-.764 4.224-.831 6.358-.045 1.236-.562 2.09-1.505 2.853-3.909 3.168-8.267 5.571-12.962 7.346-.09.045-.18.067-.292.112-.135.045-.27.068-.382-.067-.09-.112-.045-.247.022-.382.652-1.303 1.303-2.606 1.955-3.931.18-.337.449-.472.83-.45.315.023.608.023.922-.022 2.673-.27 4.718-1.505 5.75-4.043 1.147-2.854-.022-6.178-2.582-7.728-3.056-1.842-6.628-.562-8.245 1.37-1.483 1.797-2.426 4.965-.292 7.818.314.404.651.786 1.01 1.123.607.584.607.606.225 1.393-.314.651-.74 1.213-1.168 1.797-1.258 1.73-2.718 3.212-4.56 4.313-.607.36-1.258.651-1.977.741-1.797.18-3.437-.853-4.178-2.785-.944-2.426-1.46-4.942-1.213-7.57.112-1.281.247-2.562.449-3.842.247-1.618.584-3.19 1.19-4.718.54-1.325 1.349-2.336 2.674-2.92a4.73 4.73 0 001.887-1.505c2.022-2.83 1.303-6.964-1.618-8.941-2.92-1.977-6.986-1.146-8.873 1.82-1.662 2.583-1.483 6.582 1.797 8.828.899.607 1.303 1.37 1.326 2.449.09 4.74-.832 9.233-2.831 13.523-.382.831-.921 1.528-1.662 2.022-2.584 1.752-4.381 1.55-6.403-.382-1.168-1.1-2.022-2.47-2.673-3.931-.674-1.55-.674-1.595.629-2.606 3.504-2.696 2.943-8.716-1.078-10.738a16.431 16.431 0 00-2.27-.899c-.673-.202-1.347-.224-1.999.045-2.583 1.011-4.762 2.943-4.964 5.998-.09 1.348.157 2.651.83 3.82.315.561.315 1.055.023 1.617-.763 1.527-1.662 2.943-2.875 4.178-1.213 1.236-2.449 2.449-3.527 3.82-.292.381-.584.763-.899 1.1-.202.202-.337.606-.696.472-.337-.113-.247-.517-.337-.809-.18-.651.023-1.28.09-1.91.382-3.684.786-7.345 1.864-10.917.36-1.19.787-2.382 1.034-3.617.494-2.494 0-3.257-2.471-3.797-1.393-.314-2.83-.27-4.246-.449-1.28-.157-2.291.247-3.055 1.236-2.584 3.324-5.167 6.65-7.279 10.31-1.774 3.056-3.482 6.134-5.212 9.211-.359.63-.74 1.236-1.303 1.685-.224.18-.449.472-.786.337-.36-.135-.292-.494-.314-.786-.09-1.528.022-3.055.224-4.56.81-5.998 2.584-11.727 5.055-17.23.786-1.753 1.752-3.37 3.01-4.808.719-.831 1.595-1.213 2.696-1.056 1.258.18 2.493.382 3.684.764 1.887.629 3.684.224 5.526-.18.495-.112.607-.382.36-.831-.382-.741-.854-1.393-1.663-1.73a4.556 4.556 0 01-1.235-.719c-.764-.629-1.662-.92-2.584-1.123-4.515-.988-9.075-1.078-13.68-1.078-1.101 0-1.977.472-2.651 1.303-.292.36-.562.764-.809 1.168-.921 1.505-1.662 3.122-2.404 4.718-1.415 3.01-3.01 5.93-4.11 9.075C2.066 76.41 1.055 79.96.965 83.711c-.067 2.83.135 5.616.405 8.424.135 1.527.831 2.695 1.91 3.684a8.006 8.006 0 002.493 1.55c2.673 1.056 5.414 1.19 8.222.764 1.235-.18 2.201-.831 2.965-1.82a13.402 13.402 0 001.573-2.606 55.49 55.49 0 012.988-5.436c.18-.27.247-.741.651-.697.382.045.382.517.494.81.652 1.707 1.236 3.436 2.022 5.099 2.157 4.493 8.716 5.795 12.041.674 1.393-2.135 2.696-4.314 4.156-6.403a45.5 45.5 0 003.482-5.975c.157-.315.314-.607.472-.899.09-.18.224-.36.449-.382.719-.045 1.415.112 2.112.292.494.112.651.652.876 1.078a52.426 52.426 0 012.83 6.762c1.169 3.415 2.36 6.785 4.269 9.885a7.45 7.45 0 011.078 3.369c.224 2.898.45 5.819.584 8.739.247 5.751 1.46 11.277 3.257 16.714 2.067 6.267 5.976 11.03 11.345 14.714 2.201 1.505 4.605 2.449 7.278 2.628 1.056.068 2.09.247 3.145.36.562.067.877.337.921.898.158 1.82.382 3.64.09 5.482-.337 2.066-1.258 3.796-2.942 5.077-1.506 1.145-2.494 1.033-3.527.247-.472-.382-1.056-.629-1.55-.966-2.741-1.752-5.729-2.921-8.897-3.707-2.965-.741-5.953-1.033-8.985-.539-5.347.876-10.401 2.561-15.052 5.347-1.055.629-2.089 1.258-3.145 1.864-1.258.741-2.628 1.056-4.088 1.056-.786 0-1.46-.27-2-.854-.74-.786-1.505-1.595-2.021-2.538-1.079-1.887-1.595-3.864-.607-6.021.607-1.303.831-2.718.944-4.156.202-2.448.247-4.874.247-7.323 0-.764.18-1.281.898-1.64 1.663-.809 1.82-3.28.337-4.583-.943-.831-2.179-.876-3.19-.135-1.235.899-1.595 2.292-.876 3.685.27.539.315 1.011.135 1.55-.202.584-.36 1.168-.651 1.707-.337.629-.787 1.191-1.438 1.55-.719.382-1.415.247-1.887-.404-.202-.27-.337-.584-.45-.899-.786-2.067-1.37-4.201-1.617-6.402-.135-1.101-.157-2.045.854-2.921 1.1-.943 1.146-2.493.382-3.729a3.083 3.083 0 00-3.325-1.415c-1.348.292-2.292 1.325-2.449 2.673-.157 1.46.517 2.763 1.887 3.258.899.314 1.19.898 1.326 1.729.449 2.651.247 5.28 0 7.908-.023.359 0 .831-.382.988-.472.18-.72-.269-.989-.561-2.044-2.179-3.639-4.65-4.874-7.346-.27-.607-.292-1.123.157-1.685.854-1.101.876-2.314.247-3.549-.652-1.258-1.707-1.887-3.123-1.955-.719-.022-1.348.202-1.864.674-1.011.921-1.37 2.089-1.101 3.415.27 1.348 1.01 2.269 2.426 2.583.292.068.584.18.899.202.584.068.898.382 1.1.899.517 1.325 1.079 2.651 1.618 3.954.427 1.033.696 2.134.854 3.235.224 1.505-.36 2.65-1.708 3.369-1.595.831-3.032.337-4.403-.516-.764-.495-.786-.607-.494-1.506.45-1.325.112-2.471-.966-3.369-.472-.405-1.056-.607-1.617-.831-1.28-.495-2.966.426-3.258 1.932-.584 2.987 1.753 4.537 3.73 4.043.628-.157 1.123.023 1.594.427.944.764 1.955 1.483 2.876 2.269 2 1.685 4.2 3.122 6.065 4.965a151.04 151.04 0 015.572 5.795 13.63 13.63 0 011.999 2.808c.808 1.506 1.797 2.876 2.83 4.224a7.263 7.263 0 003.235 2.381c1.213.472 2.471.741 3.774.786a28.273 28.273 0 008.672-.988c1.662-.449 3.37-.809 5.077-1.011 1.954-.247 3.908-.27 5.863.27 2.516.696 4.493 2.224 6.2 4.111a757.519 757.519 0 018.02 8.94 42.165 42.165 0 015.369 7.638c1.46 2.651 3.033 5.235 4.83 7.661 1.932 2.583 3.527 5.391 5.032 8.244 1.527 2.898 2.65 5.908 3.302 9.143.652 3.303.966 6.582.427 9.907-.404 2.516-1.123 4.965-1.865 7.391-1.37 4.583-1.774 9.255-1.168 13.995.337 2.561 1.078 5.01 2.696 7.054 1.91 2.449 3.504 5.077 5.19 7.661 3.459 5.279 6.2 10.918 8.513 16.758.36.921.472 1.708-.112 2.674-.943 1.505-.382 3.526 1.033 4.537 1.461 1.034 3.437.854 4.651-.404a3.597 3.597 0 00.224-4.74c-.561-.696-1.28-1.123-2.156-1.258-.742-.112-1.101-.539-1.326-1.213-.472-1.483-.584-2.988-.382-4.538.203-1.572 1.663-2.426 3.168-1.932.292.09.561.225.853.337 2.764 1.123 5.167 2.831 7.481 4.673.697.561 1.056 1.168 1.034 2.044-.023 1.73.718 3.078 2.134 4.044.629.426 1.325.674 2.066.831 1.82.427 3.235-.337 3.864-2.089.899-2.539-.427-5.482-2.92-6.493-.539-.224-1.123-.404-1.685-.179-1.213.494-2.246.089-3.28-.472-2.718-1.505-4.897-3.617-6.739-6.11a2.804 2.804 0 01-.337-.63c-.404-1.145.045-1.819 1.258-1.774 2.628.112 5.189.629 7.593 1.774.764.36 1.325.854 1.752 1.618.719 1.28 1.618 2.426 2.966 3.145 1.302.696 2.56.651 3.706-.292 1.123-.921 1.348-2.157 1.011-3.505-.629-2.471-3.1-3.908-5.594-3.302-.584.135-1.145.18-1.707.023-1.438-.36-2.898-.719-4.336-1.146-2.044-.607-3.886-1.617-5.616-2.808-1.078-.741-1.078-1.033 0-1.865 1.011-.763 2.089-1.37 3.258-1.887 1.055-.471 2.066-.606 3.235-.247 2.066.629 4.223-.359 5.256-2.111 1.168-2-.337-4.111-1.819-4.538-1.708-.495-3.707.045-4.875 1.482-.809 1.011-1.797 1.618-3.055 1.842-1.91.36-3.819.607-5.774.36-.898-.112-1.819-.27-2.718-.404-2.291-.337-4.38-1.169-6.313-2.449-2.044-1.326-3.414-3.168-4.133-5.504-.36-1.168-.404-2.336-.067-3.504.314-1.101.629-2.224.92-3.325.248-1.011.697-1.91 1.259-2.763 1.797-2.651 3.639-5.235 5.751-7.661 2.201-2.538 3.908-5.369 5.458-8.312a11.496 11.496 0 001.236-3.751c.584-3.639.359-7.234-.337-10.828-.854-4.381-2.538-8.424-4.74-12.288-.539-.944-.943-1.955-1.37-2.943-.382-.876-.225-1.505.449-2.157 3.752-3.796 6.762-8.154 9.188-12.894 2.651-5.19 4.605-10.648 5.751-16.354.988-4.943 1.73-9.907 1.213-14.962-.045-.561.112-.921.674-1.078.225-.068.449-.157.674-.225 4.65-1.258 8.986-3.257 13.142-5.661 3.706-2.134 7.233-4.583 10.67-7.099 7.773-5.706 12.468-13.366 14.378-22.779.426-1.28.741-2.561 1.752-3.572zm-51.242-33.472c1.011-2.493 2.314-4.83 3.617-7.166 2.224-3.976 4.583-7.84 7.234-11.524 1.55-2.134 3.369-3.999 5.706-5.28.359-.202.808-.673 1.168-.336.382.337-.068.808-.225 1.19-2.808 7.256-6.537 13.996-11.524 19.994-1.483 1.774-3.1 3.414-4.965 4.807a8.28 8.28 0 01-.921.63c-.449.246-.629.134-.629-.36.045-.697.292-1.326.539-1.955zm37.965 43.289c-1.37 2.292-3.032 4.336-4.874 6.246-3.123 3.234-6.695 5.818-10.649 7.952a19.923 19.923 0 01-4.133 1.685c-2.381.674-4.763 1.393-7.121 2.089a9.3 9.3 0 01-1.887.36c-.697.067-.877-.045-.989-.697-.359-1.999-.696-4.021-1.033-6.02-.09-.54.09-.989.292-1.483.853-2.112 1.258-4.268.966-6.56-.45-3.527-3.482-6.447-7.032-6.649-1.752-.09-3.459.18-5.009 1.056-.562.314-1.146.404-1.775.382-2.269-.09-4.47.292-6.537 1.213-.809.359-1.618.404-2.471.269-3.37-.472-6.335.315-8.716 2.876-1.685 1.797-2.157 3.931-1.798 6.312a9.441 9.441 0 001.348 3.595c.427.651.495 1.302.292 2.021-.719 2.561-.943 5.212-1.1 7.84-.045.674-.068 1.348-.203 2.022-.112.562-.427.809-.966.854-.898.067-1.774-.067-2.628-.27-1.213-.292-2.426-.629-3.64-.943-1.1-.292-1.931-.989-2.717-1.73-1.865-1.752-3.123-3.909-4.156-6.223-1.708-3.796-2.472-7.795-2.83-11.928-.226-2.651-.293-5.279 0-7.93.358-3.1 1.774-5.684 4.155-7.683 1.168-.989 2.269-2.044 3.033-3.392.404-.72.966-1.19 1.797-1.37.36-.068.719-.248 1.033-.405a1972.43 1972.43 0 009.75-4.875 29.447 29.447 0 004.335-2.65c.495-.36 1.011-.697 1.528-.99.404-.224.674-.044.607.428-.135.876-.337 1.73-.45 2.606a110.277 110.277 0 00-.786 8.604 5.626 5.626 0 00.247 2.111c.18.54.494.989 1.034 1.191 2.358.854 4.74 1.707 7.301 1.617.584-.022 1.145-.09 1.707-.202.674-.135 1.078-.539 1.19-1.213.652-3.751 1.528-7.436 2.337-11.142.202-.876.157-1.775-.36-2.561-.449-.697-.449-1.37-.022-2.09.494-.853.898-1.752 1.348-2.628.157-.292.337-.584.516-.876.45-.629.629-.629.944.045.112.247.202.494.292.764a352.373 352.373 0 001.64 4.493c1.662 4.515 4.628 7.772 9.21 9.435 2.494.92 4.988.876 7.481.022 1.146-.404 2.089-1.1 2.876-2.044 1.909-2.314 3.684-4.695 4.829-7.503.023-.068.09-.09.18-.18.382.225.449.584.607.876 1.685 3.168 3.369 6.358 5.032 9.548a17.458 17.458 0 003.527 4.582 33.848 33.848 0 011.774 1.82c1.865 2.179 2.112 4.875.674 7.323z" fill="#80A43F"/><path d="M247.313 175.096c2.336-1.392 4.313-3.28 5.481-5.751 1.258-2.673 2.741-5.234 4.044-7.885a3.52 3.52 0 01.404-.696c.112-.157.314-.18.427 0 .179.247.337.517.472.786.471.899 1.033 1.752 1.729 2.516 2.741 3.078 6.201 4.673 10.289 4.875 1.056.045 2.112-.157 2.988-.809 2.112-1.527 4.246-3.055 6.178-4.807 1.55-1.438 2.695-3.123 3.257-5.189a5.392 5.392 0 01.719-1.55c2.561-3.887 4.852-7.93 6.717-12.199.112-.269.157-.606.539-.741.427.27.696.696.943 1.146a21.11 21.11 0 012.179 5.459c.562 2.336.652 4.695.719 7.076.023.876.023 1.775-.045 2.651-.067.763-.269.943-1.033.988-.404.023-.809-.022-1.213-.045-1.191-.09-2.359-.224-3.549-.157-2.224.112-3.864 1.168-4.83 3.19-1.169 2.493-1.056 5.009-.023 7.503.18.427.427.786.697 1.101 2.291.337 4.47.898 6.604 1.617.966-.112 1.932-.224 2.876-.427 2.83-.561 5.099-1.999 6.604-4.515.36-.606.831-1.191 1.056-1.842.472-1.281 1.281-2.089 2.606-2.449.314-.09.629-.269.921-.449 2.83-1.64 4.83-3.931 5.414-7.234.067-.449.359-1.055-.135-1.28-.404-.18-.741.382-1.056.651l-2.763 2.561c-.764.697-1.595 1.258-2.583 1.595-.989.337-1.168.248-1.124-.763 0-.27.023-.54.045-.809.495-3.752-.134-7.368-1.303-10.918-.584-1.82-1.617-3.37-2.987-4.672a20.475 20.475 0 00-6.762-4.246 5.84 5.84 0 00-2.696-.382c-.988.112-1.662.584-2.022 1.572-.876 2.494-1.864 4.965-2.785 7.436-.876 2.381-1.842 4.74-2.404 7.234-.247 1.078-.786 1.819-1.662 2.448-2.247 1.595-4.448 3.235-6.493 5.077-1.1 1.011-2.336 1.865-3.571 2.718-.674.472-.787.472-1.438-.044-1.101-.877-2.022-1.932-2.561-3.258-.989-2.471-.831-4.83.854-7.009 1.078-1.393 2.313-2.651 3.639-3.841 3.774-3.415 7.099-7.211 9.749-11.569.427-.697.809-1.416 1.079-2.179.404-1.214.09-1.955-1.079-2.449-.382-.157-.763-.27-1.145-.404a14.716 14.716 0 01-2.966-1.348c-.988-.607-2.044-.899-3.19-.944-.718-.022-1.437-.067-2.134-.224-2.089-.45-3.796.179-5.211 1.752-1.595 1.797-2.719 3.886-3.707 6.043a151.222 151.222 0 00-1.977 4.358c-1.617 3.796-3.1 7.615-2.988 11.839 0 .471-.202.831-.494 1.19-.966 1.101-1.842 2.269-2.539 3.55-1.437 2.606-3.167 4.964-5.099 7.233-1.101 1.281-2.157 2.629-3.235 3.932-.269.314-.517.763-1.078.539-.539-.225-.786-.629-.742-1.213.023-.248-.044-.472-.022-.719.202-3.055.404-6.088.584-9.143.135-2.359.697-4.695.539-7.099-.112-1.55.36-2.898 1.236-4.201 2.381-3.482 4.313-7.234 5.841-11.165 1.347-3.414 2.448-6.919 3.661-10.356a16.5 16.5 0 00.629-2.044c.809-3.505 1.595-7.009 2.382-10.514.314-1.393.629-2.785.853-4.178.157-.989-.022-1.281-.921-1.662-1.011-.427-2.044-.742-3.145-.809-1.707-.113-3.392.045-5.077.09-1.752.045-2.965.876-3.864 2.403-1.909 3.28-3.369 6.74-4.493 10.334-1.55 4.987-2.561 10.132-3.684 15.231-.943 4.268-1.752 8.581-2.156 12.94-.158 1.864-.27 3.729-.248 5.593 0 .45 0 .899-.381 1.213-.877.697-1.775 1.371-2.876 1.708-.786.247-1.415.022-1.909-.584-.719-.854-1.011-1.843-.877-2.943.135-1.146.45-2.269.742-3.37.224-.831.359-1.662.337-2.516-.068-2.202-1.079-3.841-3.01-4.83-2.472-1.258-4.965-.359-6.111 2.157a16.885 16.885 0 00-1.056 3.28c-.247 1.1-.539 2.179-.988 3.212-2.044 4.628-4.493 9.053-7.234 13.321-.606.966-1.527 1.506-2.561 1.91-.876.337-1.55-.112-1.752-.989-.135-.606-.067-1.213.023-1.819.202-1.618.404-3.235.539-4.852.314-3.752.471-7.504 1.46-11.188.517-1.932.022-3.145-2.022-3.976-1.101-.449-2.224-.809-3.437-.921-1.415-.135-2.269.359-2.808 1.685-.225.561-.427 1.145-.517 1.752-.539 3.1-1.213 6.2-1.482 9.345-.045.472-.203.854-.562 1.146-1.483 1.235-2.943 2.493-4.268 3.931-.517.562-.764.494-1.101-.247a12.983 12.983 0 01-1.168-5.032c-.045-2.022.404-3.976.674-5.953.157-1.146.561-2.269.269-3.437-.224-.944-.202-1.887-.067-2.831.247-1.572.517-3.145.809-4.717.921-4.605 2.381-9.053 3.594-13.569.18-.719.607-1.078 1.348-1.19 1.483-.225 2.943-.517 4.403-.787 1.954-.337 3.819-.898 5.549-1.909.539-.315 1.033-.652 1.46-1.101.517-.539.517-.854.045-1.415a4.465 4.465 0 00-1.91-1.303c-.494-.18-.921-.202-1.28.247-.36.427-.831.539-1.371.584-.336.023-.673.09-1.01.135-1.618.18-3.19.674-4.83.719-.876.022-1.034-.135-.921-1.011.719-5.459 1.415-10.896 2.269-16.332.112-.786.157-1.55 0-2.336-.203-1.168-.854-1.887-2.045-2.112-.876-.157-1.729-.314-2.606-.472-.921-.18-1.819-.045-2.74.045-.652.068-1.034.382-1.236 1.011-.494 1.505-.988 3.033-1.393 4.583a2.817 2.817 0 00-.089.606c-.023 1.416-.427 2.741-1.169 3.954-.426.697-.741 1.483-.696 2.314.18 2.539-.359 5.01-.539 7.503-.068.876-.135 1.752-.225 2.629-.112 1.011-.202 1.1-1.19 1.347-.472.113-.921.203-1.393.293-1.618.314-1.618.314-1.146-1.259.517-1.707.696-3.459.629-5.234-.045-1.056-.494-1.864-1.393-2.448-.853-.562-1.819-.899-2.808-1.169l-12.872-3.437a11.24 11.24 0 00-2.112-.337c-.966-.067-1.707.292-2.336.989-.629.719-1.168 1.505-1.55 2.381-1.932 4.201-3.504 8.537-5.302 12.782-.741 1.753-1.078 3.685-.651 5.594.472 2.044 1.168 4.044 2.134 5.908 1.573 2.988 3.864 5.302 6.605 7.234 1.437 1.011 2.493 2.291 3.167 3.909a547.235 547.235 0 012.673 6.492c.315.741.405 1.505.18 2.291-.09.337-.18.674-.18.989-.112 2.179-1.1 4.043-2.021 5.93-.809 1.663-2.292 2.337-4.089 2.337-1.078 0-1.348-.225-1.707-1.236-.405-1.146-.787-2.314-1.191-3.459-.584-1.708-1.033-3.437-1.505-5.19-.225-.853-.562-1.729-1.595-1.909-1.033-.18-1.595.606-2.157 1.28-.876 1.079-.988 2.359-.921 3.662.158 2.381.292 4.74.472 7.099.157 2.201 1.752 3.976 3.931 4.493a93.91 93.91 0 007.504 1.37c1.707.247 3.392.157 5.032-.404 1.437-.495 2.875-1.034 4.313-1.55.988-.36 1.752-.989 2.336-1.887 1.101-1.685 1.932-3.505 2.606-5.392.449-1.235.562-2.493.427-3.819-.135-1.55-.697-2.965-1.415-4.335-2.292-4.381-5.347-8.155-9.031-11.435-1.258-1.123-2.629-2.157-3.954-3.212-1.078-.876-1.887-1.955-2.336-3.28-.876-2.516-1.371-5.055-.876-7.773.696-3.886 1.37-7.75 2.898-11.412.314-.786.584-1.595.988-2.336.607-1.056 1.46-1.797 2.696-1.977.696-.112 1.437-.135 2.134.022 1.685.405 3.347.876 4.92 1.64 1.28.607 1.505 1.146 1.235 2.539-.022.135-.067.269-.112.404a199.97 199.97 0 01-4.089 15.343 18.464 18.464 0 00-.674 3.078c-.067.449-.045.876.158 1.303.179.382.471.674.921.741.449.068.674-.269.853-.606 1.932-3.392 4.561-6.358 6.066-9.997.179-.404.494-.629.966-.629 1.145 0 2.314-.045 3.459-.022.629 0 .742.134.719.808a36.94 36.94 0 01-.18 2.224c-.404 2.831-.741 5.661-.876 8.492-.247 4.852-.224 9.705-.224 14.557 0 .719-.045 1.415-.135 2.134-.18 1.415-.18 2.853.112 4.246.584 2.853 1.775 5.481 2.831 8.154.292.719.921 1.056 1.662 1.169 1.078.134 2.089-.113 3.033-.629 1.707-.921 3.01-2.292 4.133-3.864.247-.36.494-.742.764-1.079.292-.359.494-.292.607.135.247.809.404 1.64.674 2.449.629 1.864 1.527 3.527 2.942 4.942 2.786 2.741 7.099 2.291 9.413-.449 1.348-1.595 2.494-3.303 3.37-5.19.786-1.684 1.617-3.369 2.426-5.054.112-.225.135-.562.517-.562.134.652-.113 1.258-.27 1.887-1.685 7.099-3.392 14.175-4.313 21.431-.494 3.977-.921 7.953-.517 11.974.247 2.449.764 4.83 2.067 6.964 1.011 1.685 2.448 2.831 4.38 3.213 3.909.808 6.695-.315 8.762-3.393.763-1.145 1.325-2.358 1.752-3.661 1.123-3.415 1.55-6.942 1.797-10.514.18-2.426.157-4.875.315-7.323.112-1.775 0-3.527-.225-5.279a96.016 96.016 0 01-.494-5.055c-.18-2.673.292-5.144 1.977-7.278.202-.247.269-.764.651-.674.449.09.315.606.404.943.023.068.023.135.023.202.314 1.708.449 3.437.809 5.122.381 1.797.966 3.527 2.089 5.032 1.954 2.471 5.773 3.437 8.312 1.932zm46.838-9.502c-.224 1.775-.898 3.325-2.179 4.605-.921.921-2.022 1.348-3.302 1.325-1.707-.022-2.921-1.1-3.145-2.853-.202-1.505.09-2.897.966-4.155.472-.674 1.078-1.034 1.887-.944 1.572.18 3.167.337 4.74.584 1.011.135 1.168.427 1.033 1.438zm-26.193-20.668c.808-3.19 2.403-5.93 4.695-8.289.763-.786 1.572-.966 2.561-.562.629.248.741.427.449 1.056a13.58 13.58 0 01-1.752 2.831c-1.573 1.887-3.213 3.751-4.808 5.638a3.743 3.743 0 01-.427.427c-.179.157-.404.292-.629.135-.202-.135-.202-.337-.202-.629 0-.135.045-.359.113-.607zm-22.622 1.124c-.023-.203.022-.405.045-.607.471-5.346 1.145-10.648 2.628-15.815.651-2.246 1.617-4.38 2.449-6.56.966-2.538 1.954-5.054 2.673-7.682a3.8 3.8 0 01.539-1.191c.27-.382.629-.629 1.123-.562.472.068.629.45.787.854.202.494.112 1.011.067 1.505-.18 1.752-.562 3.482-.921 5.212-1.325 6.425-2.943 12.737-5.481 18.803a60.516 60.516 0 01-3.056 6.312c-.157.292-.292.854-.696.742-.404-.135-.135-.652-.157-1.011zm-14.557 27.676c-.023.539 0 1.078 0 1.617-.045 3.37 0 6.717-.292 10.065-.45 4.987-1.168 9.906-3.011 14.601a26.575 26.575 0 01-.741 1.685c-.404.809-.629.832-1.235.135-.809-.898-1.371-1.932-1.753-3.078-.876-2.65-1.055-5.391-.966-8.132.135-3.909.832-7.75 1.64-11.569.899-4.223 1.753-8.424 2.651-12.647.292-1.326.629-2.651 1.168-3.887.09-.18.135-.382.247-.561.203-.36.405-.764.899-.697.449.068.674.427.809.831.314 1.056.471 2.112.561 3.19.202 2.831.113 5.639.023 8.447zM319.716 3.535c-.696-.45-1.483-.697-2.246-.899-3.011-.854-6.088-1.37-9.166-1.82-2.112-.292-3.864.45-5.369 1.865-.966.921-1.865 1.864-2.808 2.808-2.247 2.202-3.797 4.83-4.875 7.773a514.82 514.82 0 00-4.066 11.726c-1.078 3.28-1.617 6.65-1.752 10.087-.068 1.662.202 3.325-.202 4.964-.113.45.112.787.561.966.18.068.382.158.562.225.539.157.719.517.719 1.078a17.481 17.481 0 01-.27 2.629c-.292 1.595-.292 3.167.36 4.695.179.427.179.854-.023 1.28-.539.989-.898 2.022-.943 3.19-.023.742-.427.989-1.169.899a32.529 32.529 0 01-2.516-.382c-3.145-.584-6.312-.899-9.525-.696-1.55.09-3.01.516-4.245 1.482-.809.63-1.483 1.393-2.067 2.247-2.516 3.639-4.673 7.48-6.335 11.591-2.539 6.29-4.111 12.85-5.234 19.522-.247 1.438-.292 2.898-.023 4.358.562 2.988 2.157 5.167 4.965 6.38 1.864.809 3.796.876 5.773.539 2.786-.449 4.695-1.977 5.886-4.493.225-.494.472-.988.696-1.482 1.618-3.437 3.213-6.874 4.83-10.334.337-.741.742-1.46 1.281-2.067.449-.494.831-.382 1.011.27.09.292.112.606.112.898.045.876.067 1.753.09 2.651.067 1.797 0 3.595.292 5.392.606 3.639 1.752 7.099 3.145 10.513.247.584.674.876 1.258 1.078 1.82.607 3.684.562 5.549.472h3.145c.988 0 1.774-.427 2.358-1.213.225-.292.427-.606.652-.921 2.134-3.257 4.268-6.537 6.402-9.794 2.561-3.932 4.583-8.155 6.29-12.536.113-.314.225-.651.315-.966.045-.18.022-.337-.135-.449-.135-.09-.269 0-.359.067-.135.09-.292.18-.427.293a32.984 32.984 0 00-5.863 5.189c-1.438 1.617-2.741 3.37-4.044 5.122-.494.651-1.033 1.258-1.752 1.662-.472.27-.764.135-.899-.382-.045-.135-.045-.27-.045-.404-.337-3.213-.674-6.403-.988-9.615-.157-1.483-.292-2.965-.023-4.47.247-1.326.472-2.674.719-4 .337-1.796.382-3.571 0-5.368-.157-.719-.09-1.415.113-2.112.651-2.067 1.28-4.156 1.931-6.222.337-1.079.495-2.18.472-3.303-.112-5.953 1.056-11.659 3.46-17.118 1.842-4.223 3.976-8.334 6.088-12.423 2.628-5.054 5.481-9.996 8.199-15.006.427-.809.876-1.617 1.191-2.471.427-1.303.112-2.202-1.056-2.965zm-34.101 55.667a18.112 18.112 0 01-2.134 6.941c-4.628 8.514-9.211 17.073-13.794 25.61-.336.629-.696 1.235-1.213 1.73-.179.157-.337.382-.606.314-.292-.067-.247-.36-.292-.584a22.982 22.982 0 01-.135-1.19c0-1.528.359-2.786.651-4.022.315-1.348.674-2.696 1.011-4.043.09-.36.158-.742.337-1.079.832-1.73 1.281-3.572 1.753-5.414.696-2.56 1.752-4.987 3.01-7.323 1.011-1.887 2.044-3.752 2.965-5.684 1.191-2.493 3.078-4.178 5.594-5.189.696-.27 1.393-.539 2.112-.741.584-.135.786.067.741.674zM314.19 7.488c-.023.158-.09.337-.158.472-1.505 2.965-2.516 6.133-3.684 9.255-1.033 2.764-2.134 5.504-3.572 8.088-.494.898-1.055 1.73-1.662 2.56a6.913 6.913 0 01-.517.63c-.134.157-.314.27-.539.157-.224-.09-.224-.315-.224-.63.022-.111.067-.336.112-.583 1.235-4.965 2.449-9.93 3.954-14.827.516-1.64 1.28-3.122 2.426-4.403.404-.45.764-.943 1.145-1.438.293-.404.674-.629 1.169-.763 1.033-.292 1.707.494 1.55 1.482z" fill="#80A43F"/></svg>