<svg width="120" height="120" fill="none" xmlns="http://www.w3.org/2000/svg"><circle cx="60" cy="60" r="60" fill="#8FD6ED"/><path d="M59.063 48.75h3.75v1.875h-3.75V48.75zM50.531 48.75l-.319 2.813h2.7l-.318-2.813H50.53z" fill="#0C3A64"/><path d="M84.375 80.625a3.75 3.75 0 00-3.619 2.812h-2.944a.937.937 0 01-.937-.937v-6.563h2.006a3.75 3.75 0 100-1.875h-2.006V60h2.813a8.437 8.437 0 000-16.875h-1.932a8.415 8.415 0 00-13.293-5.906 14.046 14.046 0 00-24.797 5.943A8.43 8.43 0 0040.313 60h2.812v12.187h-2.006a3.75 3.75 0 100 1.875h2.006V82.5a.937.937 0 01-.938.937h-2.943a3.75 3.75 0 100 1.875h2.944A2.82 2.82 0 0045 82.5v-8.438h7.5a2.82 2.82 0 002.813-2.812V60h3.75v20.756a3.75 3.75 0 101.874 0V60h3.75v13.125a2.82 2.82 0 002.813 2.812H75V82.5a2.82 2.82 0 002.813 2.812h2.943a3.744 3.744 0 103.619-4.687zM53.437 71.25a.937.937 0 01-.937.937H45V60h8.438v11.25zm.01-14.897l-.328-2.916h-3.113l-.328 2.916-1.856-.206.937-8.438a.927.927 0 01.928-.834h3.75a.927.927 0 01.929.834l.937 8.438-1.856.206zm11.24-4.79a.937.937 0 01-.937.937h-4.688v3.75h-1.874v-8.438a.937.937 0 01.937-.937h5.625a.938.938 0 01.938.937v3.75zm1.876 2.812h1.874V48.75h-1.874v-1.875h5.624v1.875h-1.874v5.625h1.874v1.875h-5.624v-1.875zM75 74.062h-7.5a.937.937 0 01-.938-.937V60H75v14.062z" fill="#0C3A64"/></svg>