<svg width="120" height="120" fill="none" xmlns="http://www.w3.org/2000/svg"><circle cx="60" cy="60" r="60" fill="#F56400"/><path d="M26.94 44.306v11.126s3.92 0 6.018-.16c1.65-.289 1.953-.448 2.257-2.098l.607-2.416h1.795l-.304 5.281.16 5.411h-1.81l-.448-2.113c-.448-1.504-1.056-1.81-2.257-1.954-1.504-.159-6.019-.159-6.019-.159v9.332c0 1.794.911 2.56 3.01 2.56h6.322c1.953 0 3.905-.159 5.122-3.008l1.635-3.617h1.519c-.16.752-.912 7.378-1.056 8.868 0 0-5.715-.144-8.117-.144H24.537l-6.466.144v-1.635l2.098-.463c1.518-.303 1.966-.752 1.966-1.953 0 0 .16-4.065.16-10.838 0-6.755-.16-10.822-.16-10.822 0-1.346-.448-1.65-1.966-1.954l-2.098-.444V41.6l6.322.13H36.43c2.402 0 6.452-.434 6.452-.434s-.145 2.547-.304 8.565h-1.65l-.607-2.113c-.593-2.705-1.491-4.052-3.154-4.052h-9.461c-.767.002-.767.147-.767.61zm24.362 1.187h1.81v6.322l6.177-.304-.304 2.865-6.018-.463v11.14c0 3.154 1.055 4.37 2.865 4.37 1.635 0 2.85-.912 3.298-1.664l.896 1.056c-.896 2.098-3.443 3.154-5.86 3.154-2.994 0-5.425-1.795-5.425-5.252V54.07h-3.589v-1.504c3.011-.304 5.254-2.113 6.15-7.074zm12.948 19.4l1.2 2.864c.448 1.2 1.504 2.417 3.906 2.417 2.56 0 3.616-1.36 3.616-3.01 0-5.121-10.083-3.616-10.083-10.532 0-3.906 3.154-5.73 7.219-5.73 1.809 0 4.514.304 5.874.911-.304 1.504-.463 3.457-.463 4.963l-1.491.144-1.056-3.009c-.303-.737-1.518-1.346-3.009-1.346-1.81 0-3.616.752-3.616 2.706 0 4.659 10.387 3.616 10.387 10.533 0 3.92-3.458 6.018-7.682 6.018-3.154 0-6.322-1.215-6.322-1.215.303-1.794.16-3.746 0-5.714h1.52zm11.734 14.439c.448-1.65.751-3.747 1.055-5.715l1.65-.145.608 3.154c.144.752.592 1.36 1.794 1.36 1.954 0 4.515-1.2 6.93-5.412-1.07-2.56-4.225-10.822-7.09-17.144-.751-1.663-.896-1.81-1.938-2.113l-.767-.29V51.51l4.528.16 5.555-.304v1.505l-1.359.304c-1.055.145-1.49.737-1.49 1.346 0 .16 0 .304.144.608.289.911 2.706 7.668 4.515 12.181 1.49-3.153 4.355-10.227 4.803-11.43.16-.607.304-.751.304-1.2 0-.766-.448-1.214-1.49-1.503l-1.071-.306v-1.503l4.224.144 3.906-.144v1.504l-.752.592c-1.504.608-1.663.752-2.258 1.967l-6.61 15.48c-3.921 8.883-7.986 9.635-10.838 9.635-1.807.001-3.166-.462-4.353-1.213z" fill="#fff"/></svg>