<svg width="120" height="120" fill="none" xmlns="http://www.w3.org/2000/svg"><circle cx="60" cy="60" r="60" fill="#9B5C8F"/><g clip-path="url(#clip0)"><path d="M27.157 36h67.154c4.25 0 7.69 3.349 7.69 7.486v24.955c0 4.137-3.44 7.486-7.69 7.486H70.23l3.306 7.88-14.537-7.88H27.192c-4.25 0-7.69-3.349-7.69-7.486V43.486C19.468 39.382 22.907 36 27.157 36z" fill="#fff"/><path d="M24.198 42.823c.47-.62 1.174-.946 2.113-1.012 1.71-.13 2.683.653 2.918 2.35 1.04 6.825 2.18 12.603 3.387 17.337l7.344-13.614c.671-1.24 1.51-1.894 2.515-1.959 1.476-.098 2.382.816 2.75 2.742.839 4.343 1.912 8.032 3.186 11.166.872-8.293 2.348-14.267 4.427-17.956.504-.915 1.241-1.372 2.214-1.437.771-.065 1.476.163 2.113.653s.972 1.11 1.04 1.861c.033.588-.068 1.077-.336 1.567-1.308 2.35-2.381 6.301-3.253 11.786-.838 5.322-1.14 9.468-.94 12.439.068.816-.066 1.534-.401 2.154-.403.719-1.007 1.11-1.778 1.176-.872.065-1.777-.327-2.65-1.208-3.118-3.102-5.6-7.738-7.41-13.908-2.18 4.179-3.79 7.313-4.83 9.402-1.979 3.69-3.655 5.583-5.064 5.681-.905.065-1.677-.686-2.348-2.253-1.71-4.277-3.555-12.536-5.533-24.78-.134-.848.067-1.599.536-2.187zm72.071 5.126c-1.207-2.057-2.984-3.297-5.365-3.787a9.032 9.032 0 00-1.811-.196c-3.22 0-5.836 1.632-7.881 4.897-1.744 2.775-2.616 5.844-2.616 9.207 0 2.514.536 4.668 1.61 6.464 1.207 2.057 2.984 3.298 5.365 3.787a9.03 9.03 0 001.811.196c3.253 0 5.87-1.632 7.881-4.897 1.744-2.808 2.616-5.877 2.616-9.24.034-2.546-.536-4.668-1.61-6.431zm-4.225 9.044c-.47 2.154-1.308 3.754-2.549 4.831-.972.85-1.878 1.208-2.716 1.045-.805-.163-1.476-.849-1.979-2.122-.402-1.012-.604-2.024-.604-2.97 0-.817.067-1.633.235-2.384a10.422 10.422 0 011.778-3.885c1.106-1.6 2.28-2.253 3.487-2.025.805.164 1.476.85 1.98 2.123.401 1.012.603 2.024.603 2.97 0 .85-.067 1.666-.235 2.416zm-16.769-9.044c-1.207-2.057-3.018-3.297-5.365-3.787a9.032 9.032 0 00-1.811-.196c-3.22 0-5.836 1.632-7.881 4.897-1.744 2.775-2.616 5.844-2.616 9.207 0 2.514.537 4.668 1.61 6.464 1.207 2.057 2.984 3.298 5.365 3.787a9.03 9.03 0 001.811.196c3.253 0 5.87-1.632 7.881-4.897 1.744-2.808 2.616-5.877 2.616-9.24 0-2.546-.536-4.668-1.61-6.431zm-4.259 9.044c-.47 2.154-1.308 3.754-2.548 4.831-.973.85-1.878 1.208-2.717 1.045-.805-.163-1.476-.849-1.979-2.122-.402-1.012-.603-2.024-.603-2.97 0-.817.067-1.633.235-2.384a10.42 10.42 0 011.777-3.885c1.107-1.6 2.28-2.253 3.488-2.025.805.164 1.475.85 1.978 2.123.403 1.012.604 2.024.604 2.97a9.403 9.403 0 01-.235 2.416z" fill="#9B5C8F"/></g><defs><clipPath id="clip0"><path fill="#fff" transform="translate(19.5 36)" d="M0 0h82.5v48H0z"/></clipPath></defs></svg>