<svg width="120" height="120" fill="none" xmlns="http://www.w3.org/2000/svg"><path d="M60 120c33.137 0 60-26.863 60-60S93.137 0 60 0 0 26.863 0 60s26.863 60 60 60z" fill="#96BF48"/><path d="M84 34.148c-.258-.023-6-.445-6-.445s-3.984-3.984-4.43-4.406c-.445-.445-1.289-.305-1.617-.211-.047.023-.867.281-2.226.703-1.336-3.844-3.68-7.383-7.829-7.383-.117 0-.234 0-.351.024-1.172-1.57-2.625-2.25-3.89-2.25-9.634 0-14.227 12.093-15.657 18.234-3.75 1.172-6.398 1.992-6.727 2.11-2.086.656-2.156.726-2.437 2.695-.211 1.5-5.672 43.945-5.672 43.945l42.586 7.992 23.063-5.015s-8.086-55.008-8.157-55.383c-.047-.375-.375-.586-.656-.61zm-22.734-2.156v.422a1790.39 1790.39 0 00-7.43 2.32c1.43-5.554 4.102-8.226 6.469-9.257.562 1.476.96 3.632.96 6.515zm-3.844-9.234c.422 0 .82.14 1.242.422-3.094 1.453-6.398 5.133-7.781 12.468-2.04.633-4.031 1.266-5.883 1.829 1.617-5.602 5.508-14.72 12.422-14.72zm1.664 32.695s-2.484-1.336-5.555-1.336c-4.476 0-4.71 2.836-4.71 3.54 0 3.89 10.077 5.366 10.077 14.46 0 7.149-4.523 11.766-10.593 11.766-7.313 0-11.04-4.57-11.04-4.57l1.97-6.493s3.843 3.305 7.078 3.305c2.109 0 2.976-1.688 2.976-2.906 0-5.063-8.25-5.297-8.25-13.617 0-7.008 4.992-13.782 15.094-13.782 3.89 0 5.812 1.125 5.812 1.125l-2.86 8.508zm4.687-23.836v-.773c0-2.39-.328-4.313-.867-5.836 2.133.258 3.54 2.695 4.453 5.508-1.054.304-2.273.703-3.586 1.101z" fill="#fff"/></svg>