<svg width="749" height="703" viewBox="0 0 749 703" fill="none" xmlns="http://www.w3.org/2000/svg">
<g clip-path="url(#clip0_6709_31291)">
<mask id="mask0_6709_31291" style="mask-type:alpha" maskUnits="userSpaceOnUse" x="-39" y="-201" width="667" height="920">
<path d="M-38.5353 191.293L560.018 718.481L627.102 649.11L506.539 346.648L585.721 -44.908L588.36 -200.694L443.188 -196.51L406.812 -69.9078L429.935 -47.5466C429.935 -47.5466 435.189 -49.8167 438.653 -49.4426C443.552 -48.9135 440.549 -40.7249 449.267 -42.6209C457.985 -44.5169 476.182 -2.82423 476.182 -2.82423L279.467 58.2197L306.753 15.7647L294.615 -82.0265L236.992 -179.055L135.037 -102.101L133.605 -6.26499C133.605 -6.26499 145.047 -3.66454 152.328 0.496182C159.61 4.65689 165.331 2.57653 165.331 2.57653L108.904 113.576L-38.5353 191.293Z" fill="#D9D9D9"/>
</mask>
<g mask="url(#mask0_6709_31291)">
<g clip-path="url(#clip1_6709_31291)">
<path d="M543.501 -11.983C544.001 -12.8562 544.321 -13.8474 544.733 -14.7796C548.192 -23.1992 549.85 -32.1476 551.758 -40.9968C553.967 -51.2912 556.5 -61.5034 560.097 -71.4095C561.051 -74.0706 562.667 -75.8025 565.418 -76.5542C571.651 -78.2165 576.752 -81.5493 580.408 -86.945C581.914 -89.1892 582.282 -89.2693 584.567 -87.9263C587.742 -86.0098 591.224 -85.1569 594.905 -84.8072C597.407 -84.5848 599.854 -84.2735 602.297 -83.9616C605.141 -83.583 605.498 -83.3542 606.044 -80.4827C607.47 -72.512 610.184 -64.975 612.325 -57.2361C614.11 -50.8005 618.293 -46.7265 624.157 -44.0913C626.363 -43.1143 628.651 -42.4619 630.948 -42.118C640.411 -40.5725 649.436 -42.0753 658.269 -45.5298C662.154 -47.0649 664.856 -49.7994 666.554 -53.6192C668.213 -57.2766 669.399 -60.9854 670.245 -64.8496C671.715 -71.1497 673.684 -77.2521 675.873 -83.4017C676.153 -84.2297 676.28 -85.4073 677.322 -85.5572C678.452 -85.6498 678.981 -84.6146 679.481 -83.7268C680.935 -81.2823 682.384 -78.8374 683.822 -76.4663C686.315 -72.4084 689.142 -68.5759 692.547 -65.2529C702.498 -55.4557 722.586 -57.2178 728.763 -72.8994C733.299 -84.4669 737.985 -96.067 741.445 -108.014C741.69 -108.987 741.776 -110.003 743.001 -110.73C743.605 -109.711 743.502 -108.768 743.547 -107.858C743.729 -103.144 744.716 -98.6045 746.128 -94.2344C748.02 -88.3587 751.32 -83.4024 756.767 -80.2166C766.548 -74.3697 779.989 -75.6832 788.442 -83.3488C790.293 -85.0549 790.459 -85.7043 788.689 -87.8494C785.553 -91.6911 784.672 -96.1002 785.077 -100.942C785.187 -102.193 785.388 -103.387 785.573 -104.653C788.027 -121.212 790.012 -137.822 791.2 -154.565C793.136 -181.976 800.594 -207.98 810.396 -233.421C811.227 -235.595 812.427 -237.467 814.254 -238.937C814.908 -239.463 815.57 -240.297 816.625 -239.683C817.573 -239.199 817.162 -238.266 817.087 -237.56C816.685 -233.409 816.372 -229.2 815.899 -225.034C814.491 -211.769 812.463 -198.524 811.439 -185.267C811.219 -182.382 811.519 -179.61 812.195 -176.843C813.079 -173.125 815.238 -170.605 818.761 -169.224C823.553 -167.276 828.55 -166.523 833.761 -166.889C834.522 -166.901 835.311 -167.149 836.116 -167.325C837.583 -167.644 838.229 -168.551 837.982 -170.031C837.866 -170.926 837.746 -171.82 837.484 -172.683C836.737 -175.05 836.83 -177.447 837.573 -179.679C840.801 -189.506 842.423 -199.673 843.723 -209.923C844.968 -219.701 846.685 -229.429 848.022 -239.151C849.886 -252.438 839.828 -263.438 826.794 -262.367C820.85 -261.841 815.816 -258.906 811.684 -254.633C803.553 -246.194 797.811 -236.281 794.104 -225.124C788.799 -209.326 783.478 -193.6 778.157 -177.875C777.778 -176.795 777.401 -175.717 776.934 -174.695C776.736 -174.192 776.408 -173.584 775.805 -173.53C774.968 -173.501 774.678 -174.128 774.519 -174.86C772.686 -180.825 770.429 -186.622 769.254 -192.73C766.944 -205.109 766.279 -217.692 766.317 -230.198C766.389 -238.341 766.692 -246.458 767.07 -254.591C767.163 -256.988 766.372 -258.503 764.329 -259.439C763.397 -259.849 762.52 -260.349 761.532 -260.671C754.381 -262.872 747.243 -262.547 740.107 -260.458C738.017 -259.85 736.749 -258.271 736.14 -256.145C735.405 -253.531 734.903 -250.892 734.893 -248.13C734.837 -244.514 734.852 -240.913 734.795 -237.297C734.764 -226.863 734.19 -216.464 735.289 -206.122C735.708 -202.073 736.584 -198.046 736.77 -194.023C737.924 -174.262 739.606 -154.539 741.522 -134.79C741.774 -132.238 741.22 -130.201 739.648 -128.249C731.214 -117.674 724.029 -106.297 718.253 -94.076C717.94 -93.3943 717.572 -92.6244 717.097 -91.9842C716.392 -90.9875 715.686 -91.064 714.991 -92.1396C714.3 -93.2162 713.954 -94.4445 713.846 -95.6477C713.062 -103.835 711.969 -112.031 711.553 -120.298C711.082 -129.166 712.094 -137.898 712.622 -146.753C712.787 -149.166 712.662 -151.515 712.077 -153.842C711.385 -156.682 709.694 -158.461 706.778 -158.824C705.201 -159.017 703.642 -159.138 702.024 -159.17C697.245 -159.281 692.594 -158.116 687.852 -157.698C683.335 -157.329 680.212 -155.116 678.324 -151.102C670.109 -133.52 662.133 -115.914 657.171 -97.1228C655.459 -90.54 653.244 -84.1541 651.207 -77.6538C650.483 -75.3495 649.489 -73.2166 647.71 -71.5262C646.565 -70.4338 645.772 -70.5677 645.144 -72.0415C644.958 -72.5378 644.759 -73.1079 644.631 -73.6935C643.258 -79.299 642.397 -85.0154 642.067 -90.7708C640.803 -109.281 642.493 -127.59 646.052 -145.77C647.193 -151.462 648.746 -157.013 651.126 -162.285C654.613 -169.867 656.404 -171.867 666.493 -171.301C670.523 -171.104 674.632 -170.54 678.661 -170.343C682.531 -170.188 686.406 -170.341 690.029 -171.666C693.375 -172.853 695.142 -175.308 695.064 -178.128C694.955 -181.095 692.823 -183.851 689.749 -184.946C687.932 -185.548 686.028 -185.824 684.089 -185.938C675.859 -186.756 667.56 -186.484 659.327 -185.921C648.085 -185.085 637.254 -182.346 626.21 -180.252C622.753 -179.576 620.304 -177.433 618.665 -174.393C617.896 -172.999 617.378 -171.506 616.86 -170.013C614.265 -162.548 612.749 -154.705 610.895 -147.017C607.575 -133.721 604.492 -120.399 604.123 -106.594C604.087 -106.05 604.068 -105.432 603.945 -104.945C603.511 -102.704 602.509 -102.026 600.323 -102.547C598.467 -102.987 596.689 -103.751 595.07 -104.855C588.028 -109.381 581.159 -114.174 574.647 -119.429C567.838 -125.002 560.167 -126.784 551.885 -122.912C546.942 -120.611 542.944 -117.134 540.021 -112.588C530.44 -97.7763 537.869 -82.2936 549.924 -77.6312C553.105 -76.4063 553.185 -76.0404 552.43 -72.8092C550.779 -65.2429 547.409 -58.5292 543.104 -52.2258C540.308 -48.1672 536.252 -46.365 531.338 -46.753C521.891 -47.5354 516.236 -53.436 512.648 -61.4736C510.832 -65.6023 509.639 -70.0199 508.319 -74.3333C505.638 -83.4879 503.192 -92.6168 500.437 -101.755C498.428 -108.526 498.266 -108.567 503.6 -112.947C510.575 -118.605 513.329 -126.028 511.672 -134.715C510.118 -143.271 504.859 -149.105 496.568 -151.979C495.739 -152.259 494.839 -152.523 494.053 -152.965C491.387 -154.302 488.564 -154.225 485.741 -153.458C483.211 -152.754 480.833 -151.7 478.593 -150.37C462.239 -140.602 464.984 -120.574 475.654 -112.773C478.018 -111.064 480.285 -109.104 482.65 -107.394C486.455 -104.695 489.349 -101.261 490.923 -96.849C495.673 -83.4674 498.904 -69.6787 498.936 -55.4242C498.955 -50.7512 498.106 -46.1963 496.46 -41.7744C493.746 -34.5134 488.03 -31.8902 480.834 -34.312C470.81 -37.7292 463.293 -44.452 456.91 -52.6477C454.762 -55.4777 454.802 -55.6396 457.195 -58.3837C465.127 -67.3927 466.085 -77.799 460.149 -88.1623C451.836 -102.763 431.485 -101.864 422.713 -92.135C410.724 -78.8699 415.805 -57.9693 432.771 -52.2285C435.667 -51.248 436.739 -49.4879 437.023 -46.789C437.242 -45.0735 436.99 -43.4083 436.666 -41.7276C434.663 -32.2445 430.439 -23.8118 425.032 -15.8885C423.701 -13.9122 421.799 -12.4251 419.9 -10.9387C418.073 -9.46795 416.234 -9.45119 414.25 -10.4767C409.775 -12.7237 406.124 -15.7633 403.436 -20.0092C400.854 -24.1249 398.329 -28.3294 395.748 -32.445C394.084 -35.1502 392.626 -37.977 391.795 -41.093C389.989 -47.9844 386.063 -53.341 380.412 -57.4791C379.221 -58.3704 378.087 -59.3504 376.971 -60.258C373.797 -62.8646 373.722 -62.8483 375.9 -66.2355C376.244 -66.7705 376.645 -67.394 376.989 -67.929C387.045 -83.381 394.249 -99.9756 398.636 -117.875C402.526 -133.826 405.622 -149.911 408.539 -166.11C409.198 -169.78 409.06 -173.584 408.648 -177.252C408.301 -180.243 406.808 -182.525 404.428 -184.308C399.487 -187.987 393.035 -188.041 388.085 -184.357C384.791 -181.877 382.26 -178.72 379.653 -175.546C371.995 -165.983 366.769 -155.109 361.575 -144.088C357.217 -134.859 353.866 -125.236 350.102 -115.753C349.608 -114.496 349.117 -113.239 348.372 -112.08C347.512 -110.743 346.569 -110.845 345.87 -112.303C345.393 -113.426 345.051 -114.655 344.78 -115.899C342.775 -124.051 342.328 -132.464 341.821 -140.788C341.219 -150.242 341.369 -159.782 340.533 -169.261C339.845 -176.319 338.915 -183.401 338.664 -190.553C338.216 -204.947 337.787 -219.269 337.427 -233.605C337.37 -235.28 337.198 -236.776 336.15 -238.081C331.017 -244.402 326.276 -251.039 320.68 -257.029C318.374 -259.518 315.751 -261.708 312.423 -262.901C307.857 -264.515 306.129 -263.295 306.018 -258.517C305.805 -247.506 305.651 -236.586 305.51 -225.59C305.265 -199.928 306.019 -174.253 306.391 -148.571C306.679 -127.855 307.731 -107.152 309.914 -86.541C310.787 -78.2967 311.879 -70.1002 312.517 -61.8811C313.062 -54.7925 313.021 -47.5762 314.314 -40.5734C315.043 -36.5148 313.964 -33.3667 311.431 -30.2087C300.937 -17.1154 288.438 -6.19282 274.395 2.91872C274.134 3.12908 273.857 3.26573 273.523 3.49197C273.116 3.73385 272.692 3.9024 272.231 3.54269C271.858 3.24044 271.909 2.76928 272.033 2.28252C273.233 -2.42569 274.432 -7.13357 275.616 -11.9147C275.963 -13.1404 276.746 -13.7708 278.006 -13.9681C279.047 -14.118 279.999 -14.3251 280.992 -14.6943C289.513 -17.4677 295.3 -22.9431 296.868 -31.9484C298.58 -42.0583 292.416 -52.0658 282.971 -55.302C271.709 -59.1399 260.976 -52.435 257.074 -44.9926C253.516 -38.0847 252.686 -27.0931 261.663 -19.3079C262.975 -18.2133 264.344 -17.2075 265.754 -16.364C268.145 -14.8904 268.161 -14.8171 267.473 -11.9842C266.91 -9.63803 265.917 -7.50527 264.94 -5.29913C262.066 1.22956 258.359 7.0966 253.135 11.9897C251.414 13.5909 249.497 15.0043 247.219 15.8067C241.489 17.6662 235.412 15.4608 231.627 9.6902C226.832 2.45211 223.365 -5.38129 222.307 -14.1223C221.766 -18.3747 221.298 -22.6433 221.049 -26.9598C220.708 -32.406 220.691 -37.7698 221.585 -43.1778C222.403 -47.8797 224.322 -51.7475 228.228 -54.5901C230.405 -56.2138 232.178 -58.2862 233.31 -60.833C237.893 -71.4906 232.62 -84.452 221.702 -88.8247C210.783 -93.197 198.121 -87.6062 194.073 -76.6048C190.487 -67.0074 193.907 -54.1031 206.188 -49.1069C209.546 -47.7669 211.405 -45.5643 212.243 -42.0661C215.895 -26.6823 216.078 -11.3872 212.604 4.01312C211.948 6.99265 210.685 9.64439 208.619 11.7804C201.442 19.3222 195.441 19.937 187.483 15.0738C182.896 12.3146 179.143 8.45358 175.984 4.15661C172.69 -0.417138 172.658 -0.563455 176.187 -4.78143C185.698 -16.0509 179.6 -35.2735 165.062 -39.0123C162.392 -39.6581 159.769 -40.0846 157.031 -40.3326C154.691 -40.5136 152.479 -40.1092 150.547 -38.7689C142.844 -33.6433 137.112 -25.8028 138.619 -15.7026C139.281 -11.2462 141.01 -7.17526 144.034 -3.84578C145.457 -2.23847 145.808 -0.627881 145.254 1.40933C143.848 6.9291 141.922 12.1784 138.845 17.0647C135.767 21.9513 132.6 26.7805 130.057 32.0106C129.376 33.4622 128.695 34.9138 127.909 36.2346C127.393 37.0369 127.241 38.4504 125.974 38.2658C124.796 38.1387 124.802 36.7571 124.303 35.8692C123.255 33.8733 123.468 31.6801 123.242 29.5824C121.875 17.3051 120.598 5.08512 121.58 -7.31988C121.908 -11.4548 122.455 -15.6375 122.384 -19.8394C122.227 -28.3159 120.075 -30.4548 111.64 -30.4605C106.878 -30.4983 102.225 -29.3326 97.4847 -28.9154C93.2001 -28.5201 90.1923 -26.4857 88.4037 -22.7231C82.341 -10.0569 76.2784 2.60959 71.9918 16.0397C68.3736 27.2544 64.9909 38.4943 61.535 49.7505C60.8096 52.0551 59.9949 54.3024 58.4831 56.1647C57.8785 56.9095 57.3532 58.0207 56.1594 57.8203C54.8926 57.6357 54.8575 56.4167 54.5772 55.4807C53.2018 50.5659 52.485 45.5079 52.0771 40.4595C50.4613 20.3391 52.1847 0.412144 56.3369 -19.2761C57.6575 -25.5437 59.6588 -31.4997 62.7396 -37.0768C64.4933 -40.2952 67.0778 -42.1608 70.7768 -42.4284C75.0039 -42.7344 79.174 -42.9512 83.3248 -42.5505C89.9203 -41.8381 95.4907 -44.4299 101.207 -47.0532C102.738 -47.7698 102.913 -48.7276 101.79 -50.0168C100.019 -52.1623 98.0202 -53.9507 95.1458 -54.4758C93.5542 -54.743 92.0773 -55.1887 90.6098 -55.943C87.6748 -57.4515 84.5393 -57.7662 81.3942 -57.7723C65.9784 -57.793 51.0528 -54.8537 36.0443 -51.5895C32.4571 -50.8093 29.9364 -48.6508 28.3289 -45.4645C27.6321 -44.086 27.04 -42.5773 26.5214 -41.0842C24.5865 -35.5263 23.317 -29.7295 22.0316 -24.006C19.5529 -13.1927 16.4248 -2.54471 15.0666 8.48495C13.5972 20.7658 12.8185 33.0498 15.1847 45.3398C16.9713 54.6121 19.6047 63.5469 22.4736 72.5074C23.9956 77.3902 27.0931 80.7034 31.3078 83.1606C34.2015 84.8314 37.2765 85.9262 40.5329 86.4446C49.9934 87.991 59.0207 86.4874 67.8697 83.106C71.7688 81.6447 74.4552 78.8368 76.2438 75.0743C77.7205 71.9929 78.7833 68.7712 79.5215 65.4672C81.1284 58.7536 83.0598 52.123 85.4053 45.6324C85.7999 44.6264 85.6852 43.0414 87.0349 42.9011C88.3114 42.7767 88.6458 44.3143 89.2187 45.1863C92.5521 50.2885 95.6814 55.512 99.4222 60.3723C109.635 73.486 131.936 73.0827 139.141 54.034C142.168 46.0919 144.869 38.0668 148.147 30.2231C151.113 23.0607 153.43 15.733 155.259 8.28084C155.549 7.1444 155.854 6.08133 156.16 5.0179C156.325 4.36862 156.637 3.68745 157.354 3.45518C159.664 2.79904 162.045 2.81807 164.442 2.91011C166.133 2.92574 167.027 4.57155 168.062 5.80321C173.194 12.1243 177.877 18.8502 182.079 25.8335C188.307 36.1335 194.575 46.2714 202.995 55.021C205.762 57.8697 207.761 61.4228 208.898 65.2372C211.684 74.5225 214.486 83.8827 216.995 93.3034C221.877 111.871 229.747 129.02 239.458 145.465C250.635 164.424 266.75 177.176 286.858 185.376C295.1 188.721 303.602 190.093 312.442 188.782C315.931 188.255 319.425 188.106 322.946 187.726C324.824 187.546 326.041 188.203 326.584 190C328.387 195.82 330.409 201.592 330.763 207.802C331.129 214.774 329.354 221.064 324.771 226.433C320.677 231.232 317.376 231.567 313.452 229.738C311.643 228.828 309.565 228.437 307.715 227.689C297.542 223.922 286.976 222.23 276.096 221.913C265.907 221.6 255.963 222.766 246.43 226.526C229.627 233.17 214.348 242.244 201.168 254.62C198.173 257.418 195.251 260.2 192.24 262.923C188.665 266.23 184.423 268.228 179.664 269.263C177.101 269.82 174.714 269.418 172.543 267.897C169.57 265.861 166.507 263.766 164.155 261.059C159.303 255.673 156.218 249.596 157.91 241.866C158.963 237.19 158.693 232.419 158.04 227.653C156.963 219.532 155.39 211.594 153.654 203.613C153.113 201.123 153.332 199.311 155.42 197.631C160.265 193.816 159.026 185.652 153.27 182.456C149.606 180.417 145.548 181.146 142.779 184.277C139.389 188.083 139.205 192.878 142.535 196.908C143.796 198.473 144.277 199.98 144.073 201.864C143.828 203.91 143.729 205.925 143.16 207.888C142.507 210.177 141.442 212.327 139.573 213.959C137.501 215.713 135.136 215.767 133.137 213.98C132.287 213.243 131.625 212.315 131.036 211.368C127.008 205.189 123.592 198.649 121.227 191.651C120.007 188.158 119.265 185.098 121.938 181.526C124.857 177.673 123.905 172.59 120.54 169.103C117.459 165.865 112.741 164.973 108.702 166.848C104.516 168.755 102.173 172.79 102.616 177.295C103.138 182.164 106.259 185.933 111.075 186.575C114.226 186.962 115.592 188.658 116.62 191.27C119.963 199.591 121.168 208.303 122.225 217.042C122.406 218.228 122.814 219.751 121.681 220.533C120.271 221.454 119.147 220.166 118.062 219.405C109.855 213.753 102.906 206.831 96.9685 198.92C95.6596 197.133 95.2206 195.467 96.2865 193.317C98.2883 189.124 97.5015 185.155 94.5763 181.576C91.5614 177.938 87.6747 176.637 83.0141 177.418C80.656 177.856 78.7649 179.032 77.4155 180.936C74.7738 184.654 74.4302 188.715 76.2487 192.846C78.0826 197.048 81.1513 199.524 85.9863 199.544C86.9861 199.559 88.0174 199.717 89.058 199.565C91.0097 199.373 92.2572 200.173 93.2823 201.715C95.9054 205.667 98.6755 209.59 101.356 213.455C103.479 216.519 105.138 219.916 106.431 223.392C108.23 228.138 107.138 232.283 103.255 235.582C98.6462 239.42 93.6103 238.83 88.54 237.021C85.6999 235.949 85.5473 235.6 85.8618 232.463C86.3871 227.827 84.4765 224.331 80.3258 222.169C78.5014 221.183 76.4547 220.939 74.4657 220.607C69.9418 219.901 65.1037 224.097 65.2194 229.212C65.4331 239.36 74.1456 242.756 80.2381 239.745C82.1767 238.787 83.915 239.023 85.7387 240.006C89.3552 241.827 93.1593 243.453 96.7179 245.362C104.428 249.436 112.621 252.559 120.004 257.244C127.565 262.04 135.011 267.015 142.268 272.181C145.436 274.407 148.301 277.005 150.774 279.915C154.477 284.25 158.67 288.014 162.993 291.674C166.555 294.658 170.626 296.455 175.223 297.141C179.511 297.82 183.801 297.805 188.079 297.028C197.75 295.31 206.898 292.245 215.639 287.662C220.738 285.02 226.047 282.637 231.468 280.768C237.662 278.578 244.015 277.118 250.767 277.492C259.46 277.977 266.986 281.556 273.887 286.495C284.774 294.248 295.588 302.016 306.36 309.946C314.752 316.098 322.424 323.17 329.271 331.033C335.909 338.637 342.865 345.944 350.442 352.576C358.569 359.625 365.757 367.645 372.685 375.876C379.717 384.238 385.511 393.252 389.927 403.333C394.391 413.635 397.74 424.098 398.34 435.317C398.806 443.803 398.199 452.294 397.502 460.725C396.285 476.632 398.278 492.145 403.615 507.162C406.528 515.27 410.68 522.726 417.4 528.24C425.359 534.868 432.42 542.302 439.742 549.529C454.758 564.281 467.687 580.716 479.366 598.109C481.192 600.855 482.115 603.34 480.896 606.902C478.889 612.476 482.15 618.664 487.478 620.956C492.973 623.29 499.285 621.303 502.349 616.343C505.51 611.133 504.382 604.552 499.72 600.737C497.398 598.866 494.752 597.984 491.802 598.165C489.304 598.326 487.832 597.189 486.621 595.152C484.031 590.653 482.599 585.828 482.159 580.633C481.706 575.366 485.859 571.548 491.114 572.092C492.13 572.178 493.102 572.427 494.133 572.585C503.937 574.286 512.979 578.149 521.825 582.512C524.495 583.846 526.095 585.57 526.644 588.44C527.795 594.095 531.166 597.963 536.465 600.107C538.817 601.05 541.261 601.365 543.787 601.351C550.021 601.453 554.091 597.96 554.899 591.804C556.029 582.893 549.622 574.241 540.781 572.713C538.865 572.365 536.834 572.193 535.162 573.324C531.559 575.794 527.906 575.206 524.138 574.111C514.214 571.133 505.616 565.794 497.846 558.975C497.278 558.484 496.754 557.83 496.301 557.161C494.173 553.716 495.158 551.201 499.143 550.488C507.787 548.99 516.5 548.86 525.146 550.887C527.891 551.519 530.069 552.731 532.002 554.919C535.253 558.58 538.995 561.678 543.898 563.066C548.634 564.411 552.702 563.373 555.768 559.487C558.775 555.69 558.633 551.502 556.579 547.348C552.778 539.741 543.706 536.809 536.008 540.552C534.2 541.406 532.404 541.95 530.461 541.837C525.519 541.683 520.507 541.548 515.518 541.175C508.426 540.646 501.707 538.66 495.225 536.005C491.187 534.354 490.98 533.402 493.903 529.927C496.657 526.724 499.74 523.981 503.184 521.468C506.288 519.185 509.487 518.029 513.551 518.37C520.73 518.956 527.059 514.207 529.184 507.765C531.573 500.419 525.172 494.606 520.04 494.265C514.122 493.862 507.99 497.039 505.203 502.55C503.283 506.418 500.493 509.097 496.552 510.719C490.582 513.246 484.536 515.404 477.99 515.984C474.984 516.256 471.87 516.394 468.846 516.594C461.14 517.12 453.741 515.889 446.538 513.087C438.935 510.215 433.164 505.183 429.165 498.08C427.166 494.528 426.192 490.753 426.462 486.708C426.707 482.897 426.936 479.014 427.107 475.219C427.196 471.749 428.023 468.501 429.249 465.323C433.227 455.41 437.398 445.683 442.562 436.28C447.936 426.448 451.492 416.012 454.458 405.322C455.683 401.069 456.108 396.683 455.827 392.222C455.151 379.949 451.87 368.392 447.054 357.173C441.166 343.5 432.812 331.518 422.897 320.486C420.471 317.792 418.438 314.783 416.346 311.866C414.48 309.282 414.546 307.121 416.281 304.518C425.818 289.488 432.538 273.152 437.085 255.985C442.046 237.192 444.545 218.019 444.236 198.611C443.952 181.802 442.852 165.099 437.584 148.991C437.039 147.194 437.296 145.91 439.016 145C439.701 144.619 440.368 144.17 441.053 143.789C455.316 136.393 468.03 126.805 479.87 116.025C490.435 106.444 500.194 95.9625 509.612 85.3268C530.899 61.2217 540.771 32.9303 540.323 0.899803C540.805 -3.57361 540.923 -7.97161 543.501 -11.983ZM352.781 -84.7463C354.308 -93.5894 356.899 -102.127 359.489 -110.664C363.919 -125.199 368.868 -139.463 374.896 -153.349C378.435 -161.403 383.042 -168.769 389.75 -174.598C390.777 -175.512 391.906 -177.367 393.318 -176.524C394.801 -175.697 393.669 -173.84 393.428 -172.484C389.42 -146.847 382.044 -122.24 370.043 -99.1585C366.468 -92.3236 362.361 -85.8331 357.27 -79.9722C356.478 -79.0329 355.613 -78.0784 354.714 -77.2695C353.426 -76.1459 352.76 -76.3843 352.41 -77.9949C352.063 -80.2964 352.422 -82.5213 352.781 -84.7463ZM507.19 29.4209C504.35 37.8615 500.382 45.7008 495.733 53.2311C487.848 65.9841 478.038 76.9371 466.665 86.6943C462.856 89.9767 458.79 92.7792 454.39 95.1151C447.108 98.9993 439.855 103.031 432.663 106.97C430.741 108.003 428.787 108.889 426.769 109.481C424.545 110.193 423.879 109.956 423.052 107.911C420.465 101.65 417.933 95.2996 415.418 89.0238C414.742 87.3278 415.011 85.7369 415.319 83.9838C416.602 76.4963 416.393 69.1829 413.817 61.9203C409.851 50.7448 397.9 43.3777 386.187 45.2356C380.414 46.1841 375.042 48.2739 370.612 52.2274C369.003 53.6491 367.163 54.3563 365.098 54.7305C357.639 56.0454 350.736 58.8507 344.653 63.317C342.272 65.0602 339.668 65.7801 336.791 65.9452C325.475 66.7954 316.369 71.462 310.423 81.496C306.206 88.5466 306.181 95.8356 309.04 103.34C310.607 107.372 312.931 111.007 315.981 114.101C317.834 115.92 318.515 117.994 318.365 120.48C317.838 129.336 318.985 138.135 320.335 146.811C320.666 149.039 321.071 151.252 321.109 153.544C321.141 155.455 320.292 156.483 318.567 157.012C315.685 157.867 312.735 158.051 309.809 157.995C305.649 157.903 301.457 157.665 297.281 157.501C293.486 157.33 290.284 155.647 287.196 153.79C279.878 149.402 274.249 143.264 269.241 136.455C260.986 125.294 255.663 112.803 251.562 99.5881C248.951 91.1078 246.868 82.591 245.941 73.7445C244.915 63.3869 247.696 53.9626 254.04 45.7598C257.146 41.7103 259.985 37.4893 261.519 32.5552C262.327 29.926 263.823 27.9904 266.404 26.8156C267.528 26.3412 268.572 25.5008 269.486 24.7652C278.955 17.1854 288.351 9.62114 297.804 1.96796C302.241 -1.60399 306.305 -5.47823 310.055 -9.74397C311.411 -11.2656 312.856 -12.73 314.332 -14.0482C315.491 -15.0668 316.497 -14.6723 316.612 -13.0869C316.794 -10.1362 316.74 -7.21099 316.995 -4.2759C317.772 5.29264 319.005 14.8386 320.531 24.3212C320.894 26.6959 321.607 28.9174 322.833 31.0281C323.8 32.6576 325.144 33.8999 327.044 34.176C335.337 35.2873 343.702 36.3794 351.986 34.2707C353.873 33.785 355.653 33.1657 357.405 32.4024C359.506 31.4847 360.537 29.8817 360.424 27.6058C359.89 14.9177 360.133 2.29009 360.142 -10.3633C360.18 -13.3617 359.396 -16.2583 357.154 -18.4541C355.197 -20.4054 354.719 -22.6016 355.602 -25.2471C356.606 -28.3794 357.286 -31.5943 358.132 -34.7684C358.436 -35.8313 358.816 -36.9108 359.192 -37.9893C360.213 -40.3582 360.796 -40.4851 362.301 -38.5121C362.841 -37.7862 363.309 -37.0444 363.794 -36.2299C366.617 -31.7065 369.424 -27.2568 372.323 -22.7501C380.94 -9.21256 392.915 -0.699089 409.025 1.47091C417.806 2.7047 425.902 0.790645 433.422 -3.75856C436.87 -5.88843 439.449 -8.82636 441.345 -12.4593C445.927 -21.353 450.024 -30.3713 451.765 -40.3344C451.792 -40.5704 451.994 -40.6912 452.224 -41.0477C453.628 -40.5865 454.101 -39.4624 454.823 -38.6227C462.56 -29.4943 470.309 -20.2918 477.989 -11.0747C482.217 -6.09014 487.09 -2.01294 492.732 1.35926C495.121 2.83297 497.529 4.38093 499.803 6.03319C507.426 11.8126 510.142 20.4237 507.19 29.4209Z" fill="white"/>
</g>
</g>
</g>
<defs>
<clipPath id="clip0_6709_31291">
<rect width="749" height="703" fill="white"/>
</clipPath>
<clipPath id="clip1_6709_31291">
<rect width="1070.58" height="947.184" fill="white" transform="translate(-47.29 -226.788) rotate(-12.2702)"/>
</clipPath>
</defs>
</svg>