<svg xmlns="http://www.w3.org/2000/svg" width="92.589" height="60"><g fill="#2f9a41"><path d="M23.987 48.178v11.7h2.184v-6.36l3.2 3.4 3.2-3.4v6.36h2.184v-11.7l-5.4 5.7zm15.575 9.744v-2.616h4.369v-2.2h-4.369v-2.768h5.484v-1.969h-7.668v11.52h7.812V57.92zm30.923-9.552v4.656h-5.1V48.37H63.2v11.52h2.186v-4.536h5.1v4.536h2.172V48.37zm6.936 9.552v-2.616h4.056v-2.2h-4.056v-2.768H82.9v-1.969h-7.664v11.52h7.8V57.92zm9.792 1.969v-4.393h4.044v-2.2h-4.044v-2.96h5.376v-1.969h-7.56v11.52zm-70.5-9.312a3.553 3.553 0 00-3.471 3.552 3.553 3.553 0 003.471 3.552 3.553 3.553 0 003.471-3.552 3.553 3.553 0 00-3.471-3.552m0-2.316a5.8 5.8 0 015.736 5.869 5.8 5.8 0 01-5.736 5.869 5.806 5.806 0 01-5.736-5.87 5.8 5.8 0 015.736-5.869m40.247 0a5.667 5.667 0 014.044 1.7l.108.108-1.6 1.644-.108-.108a3.422 3.422 0 00-2.442-1.028 3.553 3.553 0 00-3.471 3.552 3.553 3.553 0 003.471 3.548 3.464 3.464 0 002.448-1.028l.108-.108 1.6 1.644-.108.108a5.667 5.667 0 01-4.044 1.7 5.8 5.8 0 01-5.736-5.869 5.8 5.8 0 015.736-5.869m-49.678.108v4.656h-5.1v-4.655H0v11.52h2.184v-4.536h5.1v4.536h2.172v-11.52zM45.694.012l-19.08 9.876a.2.2 0 00-.131.2v32.255h38.483V10.14s.024-.1-.06-.12zm0 2.544l17.063 8.88v28.619H28.703v-28.7z"/><path d="M42.743 41.255h-3.132m.744 0c.228-.012 0 .012 0 0l.144-3.276c.144-3.4.3-6.792.431-10.176a4.363 4.363 0 00-.264-2.16c-.131-.216-.3-.431-.431-.66a6.62 6.62 0 01-.588-1.3 12.691 12.691 0 01-.708-3.684v-.083a2.313 2.313 0 010-.288l.012-.036.516-8.016c0-.288.18-.564.431-.564a.581.581 0 01.5.564l.2 9.18c0 .216.084.408.276.408a.356.356 0 00.336-.384l.312-9.2c0-.144.072-.564.4-.564a.521.521 0 01.492.48l.216 9.312c0 .216.084.372.276.372a.354.354 0 00.348-.372l.252-9.228a.568.568 0 01.516-.54c.252 0 .42.228.431.516l.469 8.064v.036a1.06 1.06 0 010 .276v.036c.012.024 0 .036 0 .06a12.847 12.847 0 01-.708 3.684 6.619 6.619 0 01-.588 1.3c-.131.228-.3.431-.431.66a4.38 4.38 0 00-.264 2.16q.2 5.094.42 10.176l.144 3.276c0 .012-.169-.012 0 0M51.979 41.17l-2.58-.036a39.874 39.874 0 00.12-7.968c-.456-4.08-2.088-9.5-1.836-12.384.456-5.376 1.44-7.631 3.264-9.984a.478.478 0 01.852.336c.12 13.979-.312 23.135-.108 26.723a25.51 25.51 0 00.288 3.312"/></g></svg>