<svg width="64" height="64" fill="none" xmlns="http://www.w3.org/2000/svg"><circle cx="42" cy="39" r="18" fill="url(#paint0_radial)"/><path d="M57.988 39.467V15.03c0-.097 0-.29-.097-.388v-.194L50.327 1.745C49.746.68 48.485 0 47.224 0H10.667C9.407 0 8.242.679 7.66 1.745l-7.564 12.8v.194C0 14.836 0 14.933 0 15.03V48c0 2.715 2.133 4.849 4.848 4.849H37.43C38.497 59.151 44.024 64 50.618 64 57.988 64 64 57.988 64 50.618c0-4.654-2.424-8.727-6.012-11.151zM20.364 16h17.163v8.63H20.364V16zM48.679 2.715l6.594 11.346h-16L35.782 1.939h11.442c.582 0 1.164.291 1.455.776zM33.745 1.94l3.491 12.122H20.752l3.49-12.122h9.503zM9.31 2.715a1.548 1.548 0 011.358-.776H22.11l-3.49 12.122h-16L9.31 2.715zM4.85 50.91c-1.649 0-2.91-1.26-2.91-2.909V16h16.485v9.6c0 .582.388.97.97.97h19.103c.582 0 .97-.388.97-.97V16h16.485v22.4c-1.649-.776-3.491-1.164-5.43-1.164-7.37 0-13.383 6.013-13.383 13.382v.291H4.85zm45.77 11.152c-6.304 0-11.443-5.14-11.443-11.443s5.14-11.442 11.442-11.442c6.303 0 11.443 5.14 11.443 11.442 0 6.303-5.14 11.443-11.443 11.443z" fill="#000"/><path d="M11.055 31.321c-.194-.194-.485-.388-.776-.388-.291 0-.582.097-.776.388l-5.527 7.37c-.194.29-.291.679-.097.97.194.29.485.581.873.581h2.036v6.594c0 .582.388.97.97.97h5.139c.582 0 .97-.388.97-.97v-6.594h2.036c.388 0 .679-.194.873-.581.194-.291.097-.68-.097-.97l-5.624-7.37zm1.842 6.885c-.582 0-.97.388-.97.97v6.594h-3.2v-6.594c0-.582-.388-.97-.97-.97H6.692l3.588-4.751 3.588 4.751h-.97zM25.6 31.321a1.01 1.01 0 00-1.552 0l-5.527 7.37c-.194.29-.29.679-.097.97.194.29.485.581.873.581h2.036v6.594c0 .582.388.97.97.97h5.14c.581 0 .97-.388.97-.97v-6.593h2.035c.388 0 .68-.194.873-.582.194-.291.097-.68-.097-.97l-5.624-7.37zm1.745 6.885c-.581 0-.97.388-.97.97v6.594h-3.2v-6.594c0-.582-.387-.97-.969-.97h-1.067l3.588-4.751 3.588 4.751h-.97zm31.903 7.564a1.038 1.038 0 00-1.357-.097L48 54.788l-3.685-5.43c-.29-.485-.873-.582-1.357-.291-.485.29-.582.872-.291 1.357l4.266 6.303c.194.194.388.388.68.388h.096c.194 0 .485-.097.679-.29l10.764-9.892c.484-.194.484-.776.096-1.163z" fill="#000"/><defs><radialGradient id="paint0_radial" cx="0" cy="0" r="1" gradientUnits="userSpaceOnUse" gradientTransform="rotate(124.509 16.93 33.801) scale(21.8435)"><stop stop-color="#6CA732"/><stop offset="1" stop-color="#9BCA6D"/></radialGradient></defs></svg>