<svg width="64" height="64" fill="none" xmlns="http://www.w3.org/2000/svg"><circle cx="20" cy="46" r="18" fill="url(#paint0_radial)"/><path d="M63.322 12.479l-9.135-9.113A11.464 11.464 0 0046.038 0h-4.95a2.3 2.3 0 00-1.634.674l-7.23 7.192a.318.318 0 01-.447 0L24.547.674A2.302 2.302 0 0022.913 0h-4.95a11.464 11.464 0 00-8.15 3.366L.677 12.479a2.304 2.304 0 00.002 3.265l5.337 5.31a2.332 2.332 0 003.3-.032l3.184-3.459V50.5a2.555 2.555 0 002.414 2.5h34.172C50.01 53 51 52.343 51 50.5V17.39l3.714 3.664a2.323 2.323 0 003.27 0l5.337-5.31a2.305 2.305 0 00.002-3.265zm-1.412 1.847l-5.337 5.31a.316.316 0 01-.348.067.317.317 0 01-.103-.07l-5.42-5.345A1 1 0 0049 15v35.5c.004.168-.014.337-.054.5H14.914a.631.631 0 01-.414-.5V15a1.015 1.015 0 00-1.736-.677l-4.89 5.313a.318.318 0 01-.447 0l-5.337-5.31a.306.306 0 010-.431l9.135-9.113A9.607 9.607 0 0117.963 2h4.95c.274 0 .688.554.876.74l6.576 6.544a2.323 2.323 0 003.27 0l6.6-6.567c.2-.199.545-.717.852-.717h4.95a9.607 9.607 0 016.738 2.782l9.135 9.113a.309.309 0 010 .43z" fill="#000"/><path d="M42 20H22a2.002 2.002 0 00-2 2v17a1.993 1.993 0 00.591 1.418.998.998 0 001.138.555c.09.015.18.024.271.027h20a2.002 2.002 0 002-2V22a2.002 2.002 0 00-2-2zM23.773 39L27 35.48 30.227 39h-6.454zm9.167 0l-1.344-1.467 4.803-5.4L40.967 39H32.94zm5.124-7.974a1.998 1.998 0 00-3.16-.222l-4.667 5.247-1.762-1.923a2 2 0 00-2.95 0L22 37.974V22h20l.001 14.945-3.937-5.92z" fill="#000"/><path d="M27.5 24a3.5 3.5 0 100 7 3.5 3.5 0 000-7zm0 5a1.5 1.5 0 110-3 1.5 1.5 0 010 3z" fill="#000"/><defs><radialGradient id="paint0_radial" cx="0" cy="0" r="1" gradientUnits="userSpaceOnUse" gradientTransform="rotate(124.509 4.089 31.515) scale(21.8435)"><stop stop-color="#6CA732"/><stop offset="1" stop-color="#9BCA6D"/></radialGradient></defs></svg>