<svg width="64" height="64" fill="none" xmlns="http://www.w3.org/2000/svg"><circle cx="46" cy="40" r="18" fill="url(#paint0_radial)"/><path d="M56.533 10.667h-1.066V3.2a3.2 3.2 0 00-3.2-3.2h-44.8a3.2 3.2 0 00-3.2 3.2v7.467H3.2a3.2 3.2 0 00-3.2 3.2v32a3.2 3.2 0 003.2 3.2h19.2v6.4h-7.467a3.2 3.2 0 00-3.2 3.2v4.266A1.067 1.067 0 0012.8 64h34.133A1.067 1.067 0 0048 62.933v-4.266a3.2 3.2 0 00-3.2-3.2h-7.467v-6.4h19.2a3.2 3.2 0 003.2-3.2v-32a3.2 3.2 0 00-3.2-3.2zM6.4 3.2a1.067 1.067 0 011.067-1.067h44.8A1.066 1.066 0 0153.333 3.2v3.2H6.4V3.2zm46.933 5.333v32H51.2v-7.466A1.067 1.067 0 0050.133 32h-5.18a16.328 16.328 0 00-.646-1.563l3.659-3.668a1.067 1.067 0 000-1.507l-6.027-6.027a1.067 1.067 0 00-1.507 0l-3.667 3.659a16.616 16.616 0 00-1.565-.648v-5.18A1.067 1.067 0 0034.133 16H25.6a1.067 1.067 0 00-1.067 1.067v5.18a16.09 16.09 0 00-1.562.646l-3.664-3.659a1.067 1.067 0 00-1.508 0l-6.026 6.027a1.067 1.067 0 000 1.507l3.659 3.668A16.17 16.17 0 0014.78 32H9.6a1.067 1.067 0 00-1.067 1.067v7.466H6.4v-32h46.933zm-14.437 32a9.6 9.6 0 10-18.059 0h-10.17v-6.4h4.885a1.067 1.067 0 001.022-.76c.275-.914.641-1.798 1.092-2.64a1.067 1.067 0 00-.186-1.257l-3.45-3.459 4.52-4.52 3.46 3.45a1.066 1.066 0 001.256.186 14.365 14.365 0 012.641-1.092 1.066 1.066 0 00.76-1.022v-4.886h6.4v4.886a1.066 1.066 0 00.76 1.022c.913.274 1.798.64 2.64 1.092a1.067 1.067 0 001.257-.186l3.459-3.45 4.52 4.52-3.45 3.46a1.066 1.066 0 00-.186 1.256c.45.842.817 1.727 1.093 2.642a1.067 1.067 0 001.021.758h4.886v6.4H38.896zm-15.75 0a7.36 7.36 0 01-.746-3.2 7.467 7.467 0 0114.933 0 7.34 7.34 0 01-.746 3.2h-13.44zM44.8 57.6a1.067 1.067 0 011.067 1.067v3.2h-32v-3.2a1.067 1.067 0 011.066-1.067H44.8zm-9.6-2.133H24.533v-6.4H35.2v6.4zm22.4-9.6a1.067 1.067 0 01-1.067 1.066H3.2a1.066 1.066 0 01-1.067-1.066v-32A1.067 1.067 0 013.2 12.8h1.067v29.867h51.2V12.8h1.066a1.067 1.067 0 011.067 1.067v32z" fill="#000"/><path d="M10.667 3.2H8.533v2.133h2.134V3.2zm4.266 0H12.8v2.133h2.133V3.2zm4.267 0h-2.133v2.133H19.2V3.2zm11.733 17.067H28.8V22.4h2.133v-2.133zm-12.379 4.244l-1.509 1.509 1.509 1.508 1.508-1.508-1.508-1.509zm-3.621 11.756H12.8V38.4h2.133v-2.133zm32 0H44.8V38.4h2.133v-2.133zM41.18 24.511l-1.508 1.509 1.509 1.508 1.508-1.508-1.508-1.509z" fill="#000"/><defs><radialGradient id="paint0_radial" cx="0" cy="0" r="1" gradientUnits="userSpaceOnUse" gradientTransform="rotate(124.509 18.667 35.353) scale(21.8435)"><stop stop-color="#6CA732"/><stop offset="1" stop-color="#9BCA6D"/></radialGradient></defs></svg>