<svg width="64" height="64" fill="none" xmlns="http://www.w3.org/2000/svg"><circle cx="30" cy="18" r="18" fill="url(#paint0_radial)"/><path d="M56.533 38.667h-1.44l-2.304-5.174a7.466 7.466 0 00-6.816-4.426h-5.44v-16A1.067 1.067 0 0039.467 12h-38.4A1.067 1.067 0 000 13.067V53.6a1.066 1.066 0 001.067 1.067h1.066v1.066a3.21 3.21 0 003.2 3.2h6.059a7.46 7.46 0 0013.483 0h19.594a7.443 7.443 0 0013.462 0H60.8a3.21 3.21 0 003.2-3.2v-9.6a7.475 7.475 0 00-7.467-7.466zM44.8 31.2h1.173a5.334 5.334 0 014.875 3.168l1.91 4.299h-6.891A1.067 1.067 0 0144.8 37.6v-6.4zM2.133 14.133H38.4V44H2.133V14.133zM10.752 56.8H5.333a1.067 1.067 0 01-1.066-1.067v-1.066h6.485a6.708 6.708 0 000 2.133zm7.381 4.267a5.333 5.333 0 110-10.666 5.333 5.333 0 010 10.666zm0-12.8a7.477 7.477 0 00-6.741 4.266H2.133v-6.4H38.4v6.4H24.875a7.478 7.478 0 00-6.742-4.266zM43.82 56.8H25.515a6.714 6.714 0 000-2.133h18.304a6.708 6.708 0 000 2.133zm7.381 4.267a5.333 5.333 0 110-10.666 5.333 5.333 0 010 10.666zm10.667-5.334A1.067 1.067 0 0160.8 56.8h-2.219a6.708 6.708 0 000-2.133h3.286v1.066zm0-3.2H57.93a7.443 7.443 0 00-13.462 0h-3.936V31.2h2.134v6.4a3.21 3.21 0 003.2 3.2h10.666a5.333 5.333 0 015.334 5.333v6.4z" fill="#000"/><path d="M19.2 23.733a4.267 4.267 0 10-8.534 0 4.267 4.267 0 008.534 0zm-6.4 0a2.134 2.134 0 114.267 0 2.134 2.134 0 01-4.267 0zm12.8 6.4a4.266 4.266 0 100 8.532 4.266 4.266 0 000-8.532zm0 6.4a2.133 2.133 0 110-4.266 2.133 2.133 0 010 4.266zm1.658-17.953a1.068 1.068 0 00-1.48.295l-12.8 19.2a1.067 1.067 0 001.776 1.184l12.8-19.2a1.067 1.067 0 00-.296-1.48zM45.867 44H48a1.066 1.066 0 100-2.133h-2.133a1.067 1.067 0 000 2.133zm5.333 8.533a3.2 3.2 0 100 6.4 3.2 3.2 0 000-6.4zm0 4.267a1.067 1.067 0 110-2.133 1.067 1.067 0 010 2.133zm-33.067-4.267a3.2 3.2 0 100 6.401 3.2 3.2 0 000-6.4zm0 4.267a1.067 1.067 0 110-2.134 1.067 1.067 0 010 2.134z" fill="#000"/><defs><radialGradient id="paint0_radial" cx="0" cy="0" r="1" gradientUnits="userSpaceOnUse" gradientTransform="rotate(124.509 16.453 20.145) scale(21.8435)"><stop stop-color="#6CA732"/><stop offset="1" stop-color="#9BCA6D"/></radialGradient></defs></svg>