<svg width="64" height="64" fill="none" xmlns="http://www.w3.org/2000/svg"><circle cx="18" cy="46" r="18" fill="url(#paint0_radial)"/><path d="M20.645 4.129c-5.123 0-9.29 4.167-9.29 9.29v5.162c0 1.138.926 2.064 2.064 2.064h1.032a3.1 3.1 0 003.097-3.097v-2.064a3.1 3.1 0 00-3.096-3.097h-.96c.503-3.497 3.518-6.193 7.153-6.193 3.633 0 6.64 2.698 7.143 6.193h-.95a3.1 3.1 0 00-3.096 3.097v2.064a3.1 3.1 0 003.097 3.097h1.032v2.065a2.067 2.067 0 01-2.065 2.064h-2.24a3.1 3.1 0 00-2.92-4.129 3.1 3.1 0 00-3.098 3.097 3.1 3.1 0 003.097 3.097h5.161a4.133 4.133 0 004.13-4.13v-9.29c0-5.123-4.168-9.29-9.29-9.29zm-6.194 10.323c.57 0 1.033.462 1.033 1.032v2.064c0 .57-.463 1.033-1.033 1.033H13.42v-4.13h1.032zm6.194 10.322a1.033 1.033 0 110-2.065 1.033 1.033 0 010 2.065zm6.194-6.193c-.57 0-1.033-.463-1.033-1.033v-2.064c0-.57.463-1.032 1.033-1.032h1.032v4.129h-1.032z" fill="#000"/><path d="M64 27.871a3.1 3.1 0 00-3.097-3.097H41.29V7.226C41.29 3.242 38.048 0 34.065 0H7.225C3.243 0 0 3.242 0 7.226v16.516c0 3.983 3.242 7.226 7.226 7.226h7.226v29.935A3.1 3.1 0 0017.548 64h43.355c.477 0 .923-.117 1.327-.31l.008.008.027-.027a3.1 3.1 0 001.406-1.406l.026-.027-.008-.008A3.05 3.05 0 0064 60.903V27.871zm-22.71 6.024V26.84h19.097L42.074 44.28c-1.542 1.47-4.153 1.47-5.696 0L22.4 30.969h7.968l2.891 5.06a4.311 4.311 0 003.733 2.166 4.303 4.303 0 004.298-4.299zM2.065 23.742V7.226a5.167 5.167 0 015.16-5.161h26.84a5.167 5.167 0 015.16 5.16v26.67a2.237 2.237 0 01-2.233 2.234 2.241 2.241 0 01-1.94-1.125l-3.485-6.1H7.226a5.167 5.167 0 01-5.161-5.162zm17.341 7.226L33.04 43.953 16.516 60.475V30.968h2.89zm-1.43 30.967l16.56-16.559.42.4a6.167 6.167 0 004.27 1.708 6.175 6.175 0 004.271-1.708l.42-.399 16.559 16.558h-42.5zm27.436-17.983l16.523-15.738v32.262L45.412 43.953z" fill="#000"/><path d="M34.065 55.742H32v2.065h2.065v-2.065zm6.193 0h-2.064v2.065h2.064v-2.065zm6.194 0h-2.065v2.065h2.065v-2.065z" fill="#000"/><defs><radialGradient id="paint0_radial" cx="0" cy="0" r="1" gradientUnits="userSpaceOnUse" gradientTransform="rotate(124.509 3.089 30.989) scale(21.8435)"><stop stop-color="#6CA732"/><stop offset="1" stop-color="#9BCA6D"/></radialGradient></defs></svg>