<svg width="64" height="64" fill="none" xmlns="http://www.w3.org/2000/svg"><circle cx="46" cy="40" r="18" fill="url(#paint0_radial)"/><path d="M60.565 25.41a4.336 4.336 0 00-5.013 3.177l-3.268 9.785a4.376 4.376 0 00-.69-.259 4.243 4.243 0 00-3.238.427l-10.51 6.072a9.63 9.63 0 00-4.8 8.32v10.001a1.067 1.067 0 002.133 0V52.927a7.485 7.485 0 013.733-6.466l10.513-6.07a2.134 2.134 0 112.134 3.694l-6.247 3.607a1.068 1.068 0 101.067 1.847l6.246-3.606a4.267 4.267 0 001.562-5.826c-.046-.08-.107-.144-.157-.22l3.566-10.682a2.258 2.258 0 012.53-1.706 2.126 2.126 0 011.698 2.08 2.08 2.08 0 01-.07.555L58.2 43.387a7.415 7.415 0 01-1.931 3.347l-7.17 7.17a7.42 7.42 0 00-2.188 5.28v3.75a1.067 1.067 0 002.133 0v-3.75a5.297 5.297 0 011.563-3.77l7.17-7.172a9.558 9.558 0 002.485-4.307l3.55-13.246a4.274 4.274 0 00-3.243-5.28h-.005z" fill="#000"/><path d="M19.179 36.267h27.733a3.2 3.2 0 003.2-3.2V3.2a3.2 3.2 0 00-3.2-3.2H19.18a3.2 3.2 0 00-3.2 3.2v29.867a3.2 3.2 0 003.2 3.2zm16-34.134v9.74l-1.542-1.027a1.066 1.066 0 00-1.184 0l-1.54 1.027v-9.74h4.266zM18.112 3.2a1.067 1.067 0 011.067-1.067h9.6v11.734a1.065 1.065 0 001.658.887l2.608-1.74 2.608 1.738a1.067 1.067 0 001.66-.885V2.133h9.6A1.066 1.066 0 0147.978 3.2v29.867a1.066 1.066 0 01-1.067 1.066H19.18a1.067 1.067 0 01-1.067-1.066V3.2z" fill="#000"/><path d="M24.512 29.867a1.066 1.066 0 100 2.133H41.58a1.067 1.067 0 000-2.133h-2.133v-8.092l1.379 1.38a1.067 1.067 0 001.508-1.51l-3.2-3.2a1.067 1.067 0 00-1.508 0l-3.2 3.2a1.066 1.066 0 101.508 1.51l1.38-1.38v8.092H28.78v-8.092l1.379 1.38a1.067 1.067 0 001.508-1.51l-3.2-3.2a1.067 1.067 0 00-1.508 0l-3.2 3.2a1.066 1.066 0 101.508 1.51l1.38-1.38v8.092h-2.134zm1.6 14.745l-10.513-6.069a4.266 4.266 0 00-3.928-.167l-3.249-9.724a4.362 4.362 0 00-5.043-3.24A4.299 4.299 0 000 29.578a4.25 4.25 0 00.143 1.108l3.55 13.245a9.567 9.567 0 002.486 4.31l7.171 7.171a5.298 5.298 0 011.562 3.771v3.75a1.067 1.067 0 002.133 0v-3.75a7.416 7.416 0 00-2.186-5.279l-7.172-7.171a7.427 7.427 0 01-1.931-3.352l-3.553-13.25a2.142 2.142 0 011.616-2.634 2.275 2.275 0 012.56 1.768l3.547 10.621c-.05.075-.112.139-.157.213a4.267 4.267 0 001.562 5.829l6.248 3.61a1.066 1.066 0 101.066-1.847L12.4 44.085a2.134 2.134 0 112.133-3.695l10.513 6.07a7.486 7.486 0 013.734 6.467v10.006a1.067 1.067 0 002.133 0V52.927a9.627 9.627 0 00-4.8-8.315z" fill="#000"/><defs><radialGradient id="paint0_radial" cx="0" cy="0" r="1" gradientUnits="userSpaceOnUse" gradientTransform="rotate(124.509 18.667 35.353) scale(21.8435)"><stop stop-color="#6CA732"/><stop offset="1" stop-color="#9BCA6D"/></radialGradient></defs></svg>