<svg width="64" height="64" fill="none" xmlns="http://www.w3.org/2000/svg"><circle cx="46" cy="25" r="18" fill="url(#paint0_radial)"/><path d="M4.835 38.642a2.415 2.415 0 114.83 0 2.415 2.415 0 01-4.83 0zM31.22 52.504a1.207 1.207 0 010 1.208 1.207 1.207 0 01-1.026.628H6.043a1.207 1.207 0 01-1.039-1.824l7.245-12.075a1.208 1.208 0 012.077 0l1.462 2.415 3.73-6.038a1.208 1.208 0 012.054 0l9.648 15.686zm-3.188-.58L20.533 39.74l-3.743 6.038a.735.735 0 01-.157.181 1.12 1.12 0 01-.181.157l-.17.06-.217.073a.835.835 0 01-.241 0h-.217a.82.82 0 01-.242-.085.597.597 0 01-.157 0 1.204 1.204 0 01-.181-.169 1.13 1.13 0 01-.157-.18l-1.45-2.416-5.24 8.526h19.852zM57.967 9.66v8.453a3.623 3.623 0 01-3.622 3.623h-3.623V33.81a3.623 3.623 0 01-3.623 3.623H36.231v18.113a3.623 3.623 0 01-3.622 3.623H3.628a3.623 3.623 0 01-3.623-3.623V35.02a3.623 3.623 0 013.623-3.623h15.698v-9.66h-3.623a3.622 3.622 0 01-3.623-3.623V9.66a8.453 8.453 0 018.176-8.452A3.622 3.622 0 0122.948 0h6.038a1.207 1.207 0 011.208 1.208 4.83 4.83 0 109.66 0A1.207 1.207 0 0141.062 0h6.037a3.622 3.622 0 012.693 1.208 8.453 8.453 0 018.175 8.452zm-38.641 9.66V3.744a6.038 6.038 0 00-4.83 5.917v8.453a1.207 1.207 0 001.207 1.208h3.623zm14.49 15.699a1.208 1.208 0 00-1.207-1.208H3.628A1.207 1.207 0 002.42 35.02v20.528a1.207 1.207 0 001.208 1.208h28.98a1.207 1.207 0 001.208-1.208V35.02zm14.49-14.49V3.622A1.207 1.207 0 0047.1 2.415h-4.94a7.245 7.245 0 01-14.273 0h-4.939a1.207 1.207 0 00-1.207 1.208v27.773h10.868a3.623 3.623 0 013.622 3.623H47.1a1.208 1.208 0 001.208-1.208V20.528zM55.553 9.66a6.038 6.038 0 00-4.83-5.917v15.578h3.623a1.208 1.208 0 001.207-1.208V9.66zm-11.05 12.643a1.208 1.208 0 01-1.026 1.848H26.57a1.206 1.206 0 01-1.026-1.835l5.071-8.357a1.208 1.208 0 012.053 0l.725 1.208L35.7 11.46a1.207 1.207 0 012.053 0l6.75 10.843zm-3.2-.567l-4.576-7.366-2.319 3.743c-.05.066-.107.127-.17.181a.737.737 0 01-.18.157H33.9l-.242.097a1.441 1.441 0 01-.23 0 .735.735 0 01-.47-.085 1.454 1.454 0 01-.17-.06.749.749 0 01-.168-.169 2.248 2.248 0 01-.17-.17l-.712-1.207-2.922 4.83h12.486v.049zM27.175 14.49a1.812 1.812 0 100-3.624 1.812 1.812 0 000 3.624zm-4.227 47.094H6.043a1.207 1.207 0 100 2.415h16.905a1.207 1.207 0 100-2.415zm7.246 0h-2.415a1.207 1.207 0 100 2.415h2.415a1.207 1.207 0 100-2.415zM2.77 28.63c.115.11.25.196.399.253a1.135 1.135 0 00.917 0c.149-.057.284-.143.399-.253L6.9 26.216A1.211 1.211 0 105.185 24.5l-.35.362v-4.335a1.208 1.208 0 011.208-1.207h2.415a1.208 1.208 0 000-2.415H6.043a3.623 3.623 0 00-3.623 3.622v4.335l-.35-.362a1.212 1.212 0 10-1.715 1.715L2.77 28.63zm42.772 11.568a1.206 1.206 0 00-.399-.253 1.207 1.207 0 00-.918 0 1.208 1.208 0 00-.398.253l-2.415 2.415a1.213 1.213 0 001.715 1.715l.35-.362v4.335a1.208 1.208 0 01-1.208 1.207h-2.415a1.208 1.208 0 000 2.416h2.415a3.623 3.623 0 003.623-3.623v-4.335l.35.362a1.209 1.209 0 001.979-.393 1.208 1.208 0 00-.264-1.322L45.54 40.2z" fill="#000"/><defs><radialGradient id="paint0_radial" cx="0" cy="0" r="1" gradientUnits="userSpaceOnUse" gradientTransform="rotate(124.509 22.612 27.853) scale(21.8435)"><stop stop-color="#6CA732"/><stop offset="1" stop-color="#9BCA6D"/></radialGradient></defs></svg>