<svg width="64" height="64" fill="none" xmlns="http://www.w3.org/2000/svg"><circle cx="46" cy="29" r="18" fill="url(#paint0_radial)"/><path d="M19.727 26.461c.515.295 1.177.147 1.472-.368.294-.515.147-1.177-.368-1.472l-1.767-1.03V9.385l12.292-7.066 12.292 7.066V23.59l-1.693.956c-.515.295-.662.957-.368 1.473.221.368.59.515.957.515.148 0 .368-.074.516-.147l2.281-1.325c.295-.221.515-.516.515-.957V8.796c0-.368-.22-.736-.515-.957L31.945.11a1.435 1.435 0 00-1.104 0L17.518 7.84c-.368.22-.515.515-.515.957v15.457c0 .368.221.736.515.957l2.209 1.251zm8.096 24.143c-.589 0-1.104.515-1.104 1.104v2.87l-12.292 7.14-12.292-7.213V40.299l12.292-7.14 1.987 1.178c.515.294 1.178.147 1.472-.368.295-.515.147-1.178-.368-1.472l-2.576-1.472c-.294-.221-.736-.221-1.104 0L.515 38.753c-.368.221-.515.516-.515.957v15.457c0 .368.22.736.515.957l13.396 7.655c.148.074.369.147.516.147.22 0 .368-.073.515-.147l13.396-7.728c.368-.221.515-.516.515-.957v-3.46c0-.588-.441-1.03-1.03-1.03zm35.404-11.851l-13.396-7.728c-.294-.221-.736-.221-1.104 0l-3.091 1.766c-.516.295-.663.957-.368 1.473.294.515.956.662 1.472.367l2.576-1.472 12.292 7.14v14.206l-12.292 7.14-12.292-7.14v-2.87c0-.59-.515-1.105-1.104-1.105-.59 0-1.104.516-1.104 1.104v3.533c0 .368.22.736.515.957l13.396 7.729c.147.073.368.147.515.147.148 0 .368-.074.516-.147l13.47-7.802c.294-.221.515-.516.515-.957V39.637c0-.368-.221-.736-.516-.884z" fill="#111"/><path d="M41.955 41.918V31.025c0-.368-.221-.736-.515-.957l-9.495-5.447c-.295-.22-.736-.22-1.105 0l-9.495 5.447c-.368.22-.515.515-.515.957v10.893c0 .368.22.736.515.957l9.495 5.447c.148.074.369.147.516.147.147 0 .368-.073.515-.147l9.495-5.447c.368-.22.589-.589.589-.957zm-2.135-.588l-8.39 4.858-8.392-4.858v-9.716l8.391-4.858 8.391 4.858v9.716z" fill="#111"/><defs><radialGradient id="paint0_radial" cx="0" cy="0" r="1" gradientUnits="userSpaceOnUse" gradientTransform="rotate(124.509 21.56 29.853) scale(21.8435)"><stop stop-color="#6CA732"/><stop offset="1" stop-color="#9BCA6D"/></radialGradient></defs></svg>