<svg width="320" height="48" fill="none" xmlns="http://www.w3.org/2000/svg"><g clip-path="url(#clip0)" fill="#F57C14"><path d="M15.895 15.362c4.408 0 8.164 1.553 11.268 4.655 3.103 3.065 4.656 6.811 4.656 11.24v14.618h-12.07V31.494c0-1.7-.375-3.154-1.126-4.36-.752-1.204-1.661-1.809-2.728-1.809-1.049 0-1.948.605-2.7 1.81-.75 1.205-1.126 2.659-1.126 4.359v14.382H0v-14.62c0-4.428 1.552-8.174 4.656-11.239 3.084-3.103 6.83-4.655 11.239-4.655zM43.437 12.96c-1.285 1.266-1.947 2.205-1.986 2.818v.06c0 .632.563 1.502 1.69 2.61l1.334 1.334c1.186 1.206 1.78 2.65 1.78 4.329v21.766H34.066V24.11c0-1.7.593-3.143 1.779-4.33l1.364-1.334c1.107-1.107 1.661-1.987 1.661-2.64v-.058c-.06-.594-.722-1.523-1.987-2.788l-1.453-1.483c-1.325-1.305-1.987-2.886-1.987-4.745 0-1.858.662-3.43 1.987-4.715C36.716.692 38.288.03 40.146.03c1.878 0 3.46.652 4.745 1.958 1.324 1.304 1.987 2.886 1.987 4.744 0 1.878-.663 3.46-1.987 4.745l-1.454 1.483zM66.432 36.385c.533-1.009.879-2.194 1.038-3.558h12.04c-.337 3.815-1.86 7.057-4.568 9.726v.03c-3.084 3.103-6.8 4.655-11.15 4.655h-.147c-4.37 0-8.096-1.552-11.18-4.655v-.03c-3.104-3.064-4.656-6.781-4.656-11.15v-.148c0-4.369 1.552-8.086 4.656-11.15 3.084-3.103 6.83-4.656 11.239-4.656 4.389 0 8.135 1.553 11.239 4.656 2.708 2.69 4.23 5.93 4.567 9.726H67.47c-.159-1.364-.505-2.55-1.038-3.558-.772-1.384-1.681-2.076-2.729-2.076s-1.947.692-2.698 2.076c-.752 1.404-1.127 3.094-1.127 5.07 0 1.958.375 3.638 1.127 5.043.75 1.383 1.65 2.086 2.698 2.105 1.048-.02 1.958-.722 2.729-2.106zM104.803 32.591l6.109 9.341c.514.771.772 1.463.772 2.076 0 .257-.04.494-.119.712-.277.77-.87 1.156-1.78 1.156h-9.963l-6.287-9.637v9.608h-12.07V21.382c0-1.661.594-3.084 1.78-4.271 1.166-1.166 2.58-1.75 4.24-1.75 1.681 0 3.104.584 4.27 1.75 1.187 1.187 1.78 2.61 1.78 4.27v6.525l5.457-9.756c.85-1.444 2.085-2.373 3.706-2.789a6.279 6.279 0 011.572-.207c1.048 0 2.046.277 2.995.83 1.443.87 2.372 2.116 2.788 3.736.137.515.207 1.029.207 1.542 0 1.049-.287 2.047-.86 2.996l-4.597 8.333z"/><path d="M125.778 15.45c4.33 0 8.066 1.582 11.21 4.744 2.135 2.136 3.41 4.913 3.825 8.333.099.83.148 1.601.148 2.313 0 .791-.059 1.503-.178 2.136h-18.711c.158 1.245.494 2.333 1.008 3.262.752 1.384 1.651 2.085 2.699 2.106 1.067 0 2.066-.623 2.995-1.869a9.152 9.152 0 001.067-1.897h10.764c-.119 2.728-1.286 5.357-3.499 7.888-3.143 3.163-6.89 4.745-11.238 4.745-4.449 0-8.225-1.553-11.329-4.656-3.103-3.084-4.655-6.83-4.655-11.239 0-4.389 1.552-8.135 4.655-11.238 3.104-3.087 6.851-4.628 11.239-4.628zm3.5 13.048c-.218-1.01-.475-1.78-.771-2.314-.791-1.423-1.701-2.135-2.728-2.135-1.147 0-2.047.692-2.699 2.075a11.564 11.564 0 00-.801 2.373h6.999zM148.329.001c1.68 0 3.103.594 4.27 1.78 1.187 1.166 1.78 2.59 1.78 4.27v39.826h-12.07V6.05c0-1.68.583-3.104 1.75-4.27 1.187-1.186 2.61-1.78 4.27-1.78zM183.191 20.046c3.103 3.104 4.655 6.85 4.655 11.239 0 4.408-1.552 8.165-4.655 11.268-.101.1-.287.277-.564.534-.237.218-.355.337-.355.355-2.986 2.511-6.416 3.767-10.29 3.767h-.149c-3.855 0-7.265-1.266-10.23-3.796-.198-.118-.514-.405-.949-.86-3.103-3.103-4.656-6.86-4.656-11.268 0-4.389 1.553-8.134 4.656-11.239 3.104-3.123 6.859-4.685 11.269-4.685 4.408 0 8.164 1.561 11.268 4.684zm-8.57 16.31c.77-1.404 1.156-3.093 1.156-5.071 0-1.957-.386-3.638-1.156-5.041-.753-1.404-1.651-2.106-2.699-2.106-1.048 0-1.957.702-2.728 2.105-.731 1.424-1.098 3.104-1.098 5.042 0 1.957.367 3.647 1.098 5.07.771 1.406 1.68 2.106 2.728 2.106 1.048 0 1.947-.702 2.699-2.105zM216.274 42.583c-3.085 3.103-6.832 4.656-11.239 4.656-4.409 0-8.155-1.553-11.238-4.656-3.104-3.103-4.656-6.85-4.656-11.239 0-4.388 1.552-8.135 4.656-11.238 3.084-3.104 6.829-4.656 11.238-4.656 1.304 0 2.579.159 3.825.475V6.05c0-1.68.593-3.103 1.779-4.27C211.825.592 213.249 0 214.91 0s3.083.593 4.27 1.779c1.166 1.167 1.759 2.58 1.779 4.24v25.325c0 4.389-1.562 8.135-4.685 11.24zm-11.239-4.092c1.047 0 1.947-.701 2.698-2.105.751-1.384 1.127-3.074 1.127-5.072 0-1.976-.376-3.657-1.127-5.04-.752-1.405-1.651-2.106-2.698-2.106-1.068 0-1.967.701-2.699 2.105-.752 1.384-1.127 3.064-1.127 5.041 0 1.977.376 3.667 1.127 5.072.732 1.403 1.631 2.105 2.699 2.105zM238.233 15.45c4.33 0 8.066 1.582 11.209 4.744 2.136 2.136 3.41 4.913 3.825 8.333.099.83.148 1.601.148 2.313 0 .791-.059 1.503-.177 2.136h-18.712c.158 1.245.494 2.333 1.008 3.262.752 1.384 1.651 2.085 2.699 2.106 1.067 0 2.066-.623 2.995-1.869a9.146 9.146 0 001.066-1.897h10.766c-.119 2.728-1.287 5.357-3.5 7.888-3.143 3.163-6.89 4.745-11.239 4.745-4.448 0-8.224-1.553-11.328-4.656-3.103-3.084-4.656-6.83-4.656-11.239 0-4.389 1.553-8.135 4.656-11.238 3.104-3.087 6.851-4.628 11.24-4.628zm3.499 13.048c-.218-1.01-.475-1.78-.771-2.314-.791-1.423-1.701-2.135-2.728-2.135-1.147 0-2.046.692-2.699 2.075a11.504 11.504 0 00-.8 2.373h6.998zM282.115 20.046c3.104 3.104 4.656 6.85 4.656 11.239 0 4.408-1.552 8.165-4.656 11.268-.099.1-.287.277-.564.534-.238.218-.355.337-.355.355-2.985 2.511-6.417 3.767-10.29 3.767h-.148c-3.855 0-7.265-1.266-10.231-3.796-.198-.118-.514-.405-.949-.86-3.104-3.103-4.656-6.86-4.656-11.268 0-4.389 1.552-8.134 4.656-11.239 3.103-3.123 6.86-4.685 11.269-4.685 4.408 0 8.164 1.561 11.268 4.684zm-8.57 16.31c.771-1.404 1.156-3.093 1.156-5.071 0-1.957-.385-3.638-1.156-5.041-.752-1.404-1.651-2.106-2.699-2.106-1.047 0-1.957.702-2.728 2.105-.731 1.424-1.097 3.104-1.097 5.042 0 1.957.366 3.647 1.097 5.07.771 1.406 1.681 2.106 2.728 2.106 1.047 0 1.947-.702 2.699-2.105zM304.076 15.362c4.408 0 8.164 1.553 11.268 4.655 3.104 3.065 4.656 6.811 4.656 11.24v14.618h-12.069V31.494c0-1.7-.376-3.154-1.127-4.36-.752-1.204-1.66-1.809-2.728-1.809-1.048 0-1.947.605-2.698 1.81-.752 1.205-1.127 2.659-1.127 4.359v14.382h-12.069v-14.62c0-4.428 1.552-8.174 4.655-11.239 3.083-3.103 6.83-4.655 11.239-4.655z"/></g><defs><clipPath id="clip0"><path fill="#fff" d="M0 0h320v47.239H0z"/></clipPath></defs></svg>