<svg xmlns="http://www.w3.org/2000/svg" width="199.995" height="116.261"><defs><clipPath id="a"><path data-name="Path 3" d="M697.267-933.12h-.008a177.143 177.143 0 00-35.992 3.8c-50.557 10.545-87.834 40.235-87.846 68.463a31.325 31.325 0 00.659 6.432c3.659 17.541 21.978 29.99 47.424 35.052 5.38-20.749 17.75-68.241 17.75-68.241 2.427-9.393 3.78-13.02 6.182-17.109 3.126-5.284 8.139-9.652 15.166-10.287 3.821-.344 9.51.136 12.691 2.371 3 2.108 3.387 4.316 3.289 6.328-.207 4.153-2.747 6.931-6.806 6.931-4.164 0-5.462-3.055-5.482-5.069-.025-2.742 1.6-3.164 1.582-5.2-.012-1.039-.956-2.661-3.558-2.254-3.212.505-5.887 3.053-7.626 7.5a40.3 40.3 0 00-1.536 4.777l-3.193 12.417h21.064c-2.751 9.976-7.417 27.7-8.723 32.552h-10.639l7.3-27.214h-10.427l-16.662 64.1a147.288 147.288 0 0016.842.91 174.8 174.8 0 0035.22-3.771c50.675-10.572 89.441-40.541 89.478-68.851a30.275 30.275 0 00-.637-6.242c-4.842-23.2-36.323-37.4-75.5-37.4h-.008m-93.554 29.662h12.445c19.092 0 20.436 9.744 18.818 16.681-2 8.586-7.144 14.709-29.061 14.746l-4.7 17.372h-10.711c1.962-7.242 13.206-48.8 13.206-48.8m96.046 37.3c0-11.783 10.6-21.828 21.94-21.828 5.637 0 10.506 2.619 10.506 7.079 0 4.625-3.683 9.383-9.25 11.188a37.3 37.3 0 01-12.843 1.845 15.312 15.312 0 00-.084 2.383c0 3.143 2.673 5.825 6.392 5.825 4.99 0 9.7-4.577 10.249-5.132l1.855 4.957a19.6 19.6 0 01-5.046 3.873 21.753 21.753 0 01-10.132 2.387c-8.1 0-13.586-5.065-13.586-12.576m59.363-21.613c5.912 0 6.8 3.516 6.8 6.242 0 3.2-2.26 5.4-4.848 5.4a4.131 4.131 0 01-3.176-1.135 4.047 4.047 0 01-1.156-2.594c-.129-.9-.424-1.778-1.459-1.947a4.708 4.708 0 00-3.994 1.494 19.612 19.612 0 00-4.253 6.267 30.572 30.572 0 00-1.592 4.2l-4.134 15.189h-10.719l8.788-32.552h10.393l-1.864 6.524c2.442-2.959 7.012-7.087 11.213-7.087m-83.255.563H702.5c-3.068 10.122-17.493 18.344-21.475 26h16.787l-1.759 6.547H668.8c0-10.285 17.213-22.166 20.486-27.214h-14.861zM613.1-898.6l-5.785 21.379c8.494-.021 13.83-1.492 16.449-9.9 2.139-6.881 1.3-11.482-8.8-11.482zm103.273 17.57a15.507 15.507 0 00-5.5 8.847c4.844-.169 7.582-.893 10.1-2.865 2.26-1.772 3.276-3.769 3.276-5.451 0-.924-.568-2.371-3.17-2.371a8.628 8.628 0 00-4.7 1.839"/></clipPath><clipPath id="b"><path data-name="Path 2" d="M573.408-933.12h200.006v116.271H573.408z"/></clipPath><radialGradient id="c" cx=".576" cy=".763" r="1.65" gradientTransform="matrix(.581 0 0 1 -1.198 14.51)" gradientUnits="objectBoundingBox"><stop offset="0" stop-color="#00b9f2"/><stop offset=".253" stop-color="#00b9f2"/><stop offset=".527" stop-color="#00a5e8"/><stop offset="1" stop-color="#006cb7"/></radialGradient></defs><g transform="translate(-573.421 933.12)" clip-path="url(#a)"><g data-name="Group 1" clip-path="url(#b)"><path data-name="Path 1" d="M697.267-933.12h-.008a177.143 177.143 0 00-35.992 3.8c-50.557 10.545-87.834 40.235-87.846 68.463a31.325 31.325 0 00.659 6.432c3.659 17.541 21.978 29.99 47.424 35.052 5.38-20.749 17.75-68.241 17.75-68.241 2.427-9.393 3.78-13.02 6.182-17.109 3.126-5.284 8.139-9.652 15.166-10.287 3.821-.344 9.51.136 12.691 2.371 3 2.108 3.387 4.316 3.289 6.328-.207 4.153-2.747 6.931-6.806 6.931-4.164 0-5.462-3.055-5.482-5.069-.025-2.742 1.6-3.164 1.582-5.2-.012-1.039-.956-2.661-3.558-2.254-3.212.505-5.887 3.053-7.626 7.5a40.3 40.3 0 00-1.536 4.777l-3.193 12.417h21.064c-2.751 9.976-7.417 27.7-8.723 32.552h-10.639l7.3-27.214h-10.427l-16.662 64.1a147.288 147.288 0 0016.842.91 174.8 174.8 0 0035.22-3.771c50.675-10.572 89.441-40.541 89.478-68.851a30.275 30.275 0 00-.637-6.242c-4.842-23.2-36.323-37.4-75.5-37.4h-.008m-93.554 29.662h12.445c19.092 0 20.436 9.744 18.818 16.681-2 8.586-7.144 14.709-29.061 14.746l-4.7 17.372h-10.711c1.962-7.242 13.206-48.8 13.206-48.8m96.046 37.3c0-11.783 10.6-21.828 21.94-21.828 5.637 0 10.506 2.619 10.506 7.079 0 4.625-3.683 9.383-9.25 11.188a37.3 37.3 0 01-12.843 1.845 15.312 15.312 0 00-.084 2.383c0 3.143 2.673 5.825 6.392 5.825 4.99 0 9.7-4.577 10.249-5.132l1.855 4.957a19.6 19.6 0 01-5.046 3.873 21.753 21.753 0 01-10.132 2.387c-8.1 0-13.586-5.065-13.586-12.576m59.363-21.613c5.912 0 6.8 3.516 6.8 6.242 0 3.2-2.26 5.4-4.848 5.4a4.131 4.131 0 01-3.176-1.135 4.047 4.047 0 01-1.156-2.594c-.129-.9-.424-1.778-1.459-1.947a4.708 4.708 0 00-3.994 1.494 19.612 19.612 0 00-4.253 6.267 30.572 30.572 0 00-1.592 4.2l-4.134 15.189h-10.719l8.788-32.552h10.393l-1.864 6.524c2.442-2.959 7.012-7.087 11.213-7.087m-83.255.563H702.5c-3.068 10.122-17.493 18.344-21.475 26h16.787l-1.759 6.547H668.8c0-10.285 17.213-22.166 20.486-27.214h-14.861zM613.1-898.6l-5.785 21.379c8.494-.021 13.83-1.492 16.449-9.9 2.139-6.881 1.3-11.482-8.8-11.482zm103.273 17.57a15.507 15.507 0 00-5.5 8.847c4.844-.169 7.582-.893 10.1-2.865 2.26-1.772 3.276-3.769 3.276-5.451 0-.924-.568-2.371-3.17-2.371a8.628 8.628 0 00-4.7 1.839" fill="url(#c)"/></g></g></svg>