<svg width="414" height="316" xmlns="http://www.w3.org/2000/svg"><g fill-rule="nonzero" fill="none"><circle fill="#FFF" cx="67.5" cy="66.5" r="26.5"/><path d="M68.014 93A27 27 0 1195 66c-.015 14.9-12.086 26.978-26.986 27zm0-52.652A25.666 25.666 0 1093.666 66c-.022-14.158-11.494-25.63-25.652-25.652z" fill="#D1D3D4"/><path fill="#231F20" d="M251.184 121L338 151.335 292.409 163 239 136.664z"/><path d="M292.924 162.985a.546.546 0 01-.252 0l-53.34-26.216a.594.594 0 01-.317-.396.59.59 0 01.106-.487l12.128-15.659a.612.612 0 01.663-.198l86.703 30.197a.58.58 0 01-.053 1.108l-45.532 11.625-.106.026zm-52.478-26.941l52.478 25.742 43.45-11.085-84.449-29.42-11.479 14.763z" fill="#231F20"/><path d="M150 222s-46.062 14.219-69 0c0 0 17.532 22.295 41.387 19.806C146.24 239.316 150 222 150 222z" fill="#FFCD31"/><path d="M165.068 209.781s-35.075 34.049-74.9 25.088c-55.3-12.364-97.9-78.24-60.874-160.869 0 0-38.485 55.998-18.579 118.458C38 277.958 103.903 274.421 171 256.965" fill="#FFE8A0"/><path d="M261 56.413s-10.014 45.542-9.708 64.384c0 .927 2.984 3.246 3.05 3.975 1.446 16.815-52.84 2.65-52.84 2.65s-2.016-35.657 2.03-48.417c4.045-12.76 8.382-15.556 8.382-15.556s36.314-14.257 42.693-12.257c6.38 2.001 6.393 5.221 6.393 5.221z" fill="#80A43F"/><path fill="#80A43F" d="M241.376 75L311 38.757 305.45 21 231 58.451z"/><path d="M143.068 222.811s-1.029 7.472 4.928 22.483c5.957 15.01 11.82 19.706 11.82 19.706L181 262.317 160.23 210l-17.162 12.811z" fill="#231F20"/><path d="M159.337 265a.582.582 0 01-.359-.12c-.239-.201-6.032-4.965-11.958-19.913-5.925-14.948-4.982-22.415-4.942-22.75a.576.576 0 01.239-.387l17.073-12.713a.568.568 0 01.505-.094.56.56 0 01.385.348l20.66 52.19a.606.606 0 010 .522.584.584 0 01-.424.28l-21.073 2.61-.106.027zm-16.103-42.354c-.106 1.338-.332 8.725 4.89 21.88 5.22 13.154 10.39 18.346 11.4 19.27l20.062-2.476-20.076-50.785-16.276 12.11z" fill="#231F20"/><path d="M248 257s-5.888 16.907-24.725 32.765C204.438 305.623 157 315 157 315l26.004-54.202L248 257z" fill="#FFF"/><path d="M157.662 316a.652.652 0 01-.518-.251.672.672 0 01-.08-.701l25.843-53.947a.664.664 0 01.558-.37l64.826-3.729a.639.639 0 01.572.265c.132.173.171.4.106.608-.066.172-6.152 17.189-24.873 32.91-18.721 15.721-65.916 25.122-66.434 25.215zm26.374-53.987l-25.245 52.414c7.746-1.64 47.833-10.578 64.495-24.66 15.944-13.381 22.587-27.661 24.089-31.403l-63.339 3.65z" fill="#231F20"/><path d="M212 167.41s-15.902-5.593-40.514-4.182C146.874 164.64 106 187.658 106 187.658L162.27 209 212 167.41z" fill="#FFF"/><path d="M162.76 209.99a.764.764 0 01-.24 0l-56.093-21.679a.695.695 0 01-.425-.575.67.67 0 01.332-.63c.411-.24 41.157-23.458 65.573-24.877 24.415-1.419 40.493 4.215 40.64 4.269a.672.672 0 01.212 1.15l-49.575 42.195a.726.726 0 01-.425.148zm-54.528-22.428l54.434 20.983 48.353-41.15c-3.983-1.218-18.587-5.046-38.993-3.841-21.773 1.271-56.797 20.127-63.794 24.008z" fill="#231F20"/><path d="M149.04 205.107c20.71-20.183 54.112-40.964 94.183-56.864 60.725-24.083 105.703-3.303 120.597 5.45a8.44 8.44 0 013.854 9.601c-4.747 16.55-23.016 62.395-83.741 86.478-40.07 15.914-78.674 23.685-107.663 23.207 0 0-9.334-8.209-18.842-31.827-9.507-23.619-8.387-36.045-8.387-36.045z" fill="#FFF"/><path d="M179.387 274h-2.503a.666.666 0 01-.44-.16c-.385-.346-9.559-8.632-18.972-32.265-9.413-23.633-8.468-35.968-8.428-36.488a.68.68 0 01.2-.413c21.462-21.048 55.813-41.923 94.265-57.283 60.194-23.979 104.664-4.143 121 5.515a9.168 9.168 0 014.141 10.391c-5.206 18.264-23.806 63.305-84 87.323C247.263 265.54 209.091 274 179.387 274zm-2.223-1.332c29.797.4 68.821-7.993 106.993-23.273 59.649-23.806 78.062-68.38 83.215-86.444a7.848 7.848 0 00-3.542-8.886c-16.163-9.551-60.194-29.227-119.829-5.422-38.172 15.227-72.283 35.969-93.639 56.79-.08 1.826-.24 14.095 8.348 35.636 8.588 21.54 17.136 30.307 18.454 31.585v.014z" fill="#231F20"/><path d="M367.679 162.5a128.173 128.173 0 01-32.975 54.5s-12.973-8.891-24.25-37.253C299.178 151.386 302.438 136 302.438 136a127.38 127.38 0 0161.34 16.805 8.551 8.551 0 013.9 9.695z" fill="#FFF"/><path d="M335.219 217.996a.677.677 0 01-.373-.12c-.532-.373-13.205-9.334-24.389-37.338-11.184-28.003-8.098-43.325-7.979-44.005a.679.679 0 01.652-.533 126.918 126.918 0 0161.385 16.829 9.185 9.185 0 014.135 10.4 127.652 127.652 0 01-32.886 54.58.677.677 0 01-.545.187zm-31.517-80.65c-.426 2.948-1.862 17.856 7.979 42.672 9.84 24.816 21.13 34.67 23.471 36.458a126.359 126.359 0 0032.235-53.58 7.864 7.864 0 00-3.537-8.894 125.446 125.446 0 00-60.148-16.655z" fill="#231F20"/><path d="M158.662 202a.688.688 0 01-.504-.225.65.65 0 01.08-.928 474.118 474.118 0 0146.748-33.75.675.675 0 01.914.211.65.65 0 01-.212.902 478.011 478.011 0 00-46.603 33.618.649.649 0 01-.423.172z" fill="#FFF"/><path d="M210.336 271a.667.667 0 01-.453-.173c-.186-.173-18.194-17.304-27.138-39.72-8.944-22.415-7.691-47.226-7.678-47.466a.652.652 0 01.706-.639.68.68 0 01.627.706c0 .24-1.24 24.798 7.584 46.907 8.824 22.11 26.659 39.067 26.819 39.24a.665.665 0 010 .945.68.68 0 01-.467.2zM362 151.078s25.421-6.744 26.929-2.886c1.508 3.858-21.48 16.808-21.48 16.808" fill="#231F20"/><path d="M368.055 166a.58.58 0 01-.545-.442.593.593 0 01.27-.655c10.785-6.074 21.925-13.887 21.044-15.948-.881-2.06-14.179.067-26.096 3.225a.577.577 0 01-.562-.16.601.601 0 01-.144-.576.589.589 0 01.417-.415c6.05-1.592 25.898-6.489 27.463-2.502 1.566 3.987-16.151 14.329-21.623 17.393a.702.702 0 01-.224.08z" fill="#231F20"/><path d="M364.031 167.774c-3.376-4.618-5.464-10.137-6.028-15.939-.074-1.894 1.243-3.53 3.027-3.76a2.665 2.665 0 012.155.41 2.95 2.95 0 011.205 1.93c.478 4.995 2.258 9.754 5.144 13.746.423.669.566 1.491.396 2.274a2.917 2.917 0 01-1.294 1.867c-1.434 1.105-3.43.876-4.605-.528z" fill="#FFF"/><path d="M366.671 169.998a4.044 4.044 0 01-3.212-1.494 31.67 31.67 0 01-6.452-16.013c-.129-2.237 1.522-4.185 3.764-4.443a4.054 4.054 0 013.05.76 3.104 3.104 0 011.224 2.149 26.128 26.128 0 005.309 13.224 3.08 3.08 0 01.605 2.388 4 4 0 01-1.694 2.669 4.405 4.405 0 01-2.594.76zm-5.282-20.696h-.444a2.93 2.93 0 00-2.594 2.99 30.487 30.487 0 006.17 15.385 2.959 2.959 0 003.951.387 2.668 2.668 0 001.156-1.748 1.778 1.778 0 00-.336-1.335 27.524 27.524 0 01-5.591-13.904 1.838 1.838 0 00-.7-1.241 2.607 2.607 0 00-1.612-.52v-.014z" fill="#231F20"/><path d="M214.707 259.999a.667.667 0 01-.08-1.332c.6-.067 60.001-7.194 107.296-45.519.284-.23.7-.188.933.094a.693.693 0 01-.094.945c-47.601 38.632-107.376 45.732-107.975 45.798l-.08.014z" fill="#D1D3D4"/><path d="M242.904 48.126a5.105 5.105 0 002.662-2.589A21.206 21.206 0 00249 34.212C248.756 21.96 238.792 12.12 226.507 12l4.712 3.824a24.684 24.684 0 00-20.869 10.05 7.484 7.484 0 014.845.226 63.102 63.102 0 00-7.094 2.297c-.368.1-.694.314-.932.61a1.821 1.821 0 00-.08 1.328c1.704 7.9 7.64 15.19 15.559 16.862 1.33.279 2.662.398 4.086.571 3.02.385 6.002 1.022 9.05 1.182a20.118 20.118 0 005.71-.412c.478-.108.95-.245 1.41-.412z" fill="#FFF"/><path d="M236.62 48.994h-1.482a57.494 57.494 0 01-5.899-.727c-1.045-.16-2.09-.318-3.135-.45l-.979-.119c-1.031-.132-2.09-.251-3.134-.476-7.659-1.614-14.047-8.543-15.873-17.192a2.274 2.274 0 01.159-1.812 2.3 2.3 0 011.204-.833 61.117 61.117 0 014.748-1.653 6.747 6.747 0 00-2.116.278.608.608 0 01-.662-.225.635.635 0 010-.714 25.278 25.278 0 0119.51-10.276l-3.346-2.724a.621.621 0 01-.185-.674.622.622 0 01.582-.397c12.51.124 22.675 10.135 22.988 22.64a21.632 21.632 0 01-3.505 11.651 5.66 5.66 0 01-2.937 2.83 9.022 9.022 0 01-1.507.463c-1.456.31-2.943.447-4.431.41zm-24.576-24.61a8.07 8.07 0 012.95.568.635.635 0 01.383.608.622.622 0 01-.45.542 59.159 59.159 0 00-6.997 2.275.82.82 0 00-.621 1.322c1.772 8.253 7.79 14.812 14.986 16.333.992.211 2.024.33 3.016.45l1.005.118c1.045.133 2.103.304 3.161.463 1.913.338 3.842.577 5.78.714 1.845.14 3.7.001 5.503-.41a8.4 8.4 0 001.322-.41 4.43 4.43 0 002.355-2.314 20.667 20.667 0 003.36-11.003c-.236-11.177-8.826-20.397-19.96-21.423l3.24 2.645c.2.167.274.442.186.687a.556.556 0 01-.596.384 24.154 24.154 0 00-19.271 8.53l.648-.08zM227 60s.232 13.561 6.564 13.99c6.333.427 6.436-11.993 6.436-11.993" fill="#231F20"/><path d="M233.877 75h-.367c-7.163-.477-7.49-14.696-7.503-15.295a.61.61 0 111.21 0c0 .136.312 13.7 6.375 14.109a3.623 3.623 0 002.881-1.036c3.181-2.945 3.33-10.906 3.33-10.988a.626.626 0 01.599-.586.6.6 0 01.598.6c0 .354-.15 8.56-3.71 11.86A4.913 4.913 0 01233.876 75z" fill="#231F20"/><path d="M239.758 53.375l.614 8.696s-.574 4.902-6.037 3.755a11.062 11.062 0 01-7.505-5.784s-1.336-20.818-1.83-26.353a28.45 28.45 0 0011.098-3.728 7.304 7.304 0 011.643-.936c1.095-.158.961.448 1.442 1.318a8.617 8.617 0 004.007 3.794c.22.072.415.205.56.383a.99.99 0 01.134.474c.561 4.967 1.59 9.908.868 14.902-.587 4.27-4.994 3.479-4.994 3.479z" fill="#FFF"/><path d="M235.383 67a7.432 7.432 0 01-1.674-.189 11.55 11.55 0 01-7.901-6.25.64.64 0 010-.215c0-.215-1.328-21.29-1.807-26.88a.65.65 0 01.147-.458.555.555 0 01.411-.201 27.18 27.18 0 0010.784-3.737l.451-.296a3.533 3.533 0 011.328-.725c.395-.105.816-.04 1.162.179.347.218.59.572.67.977.065.194.145.383.24.564a7.878 7.878 0 003.692 3.589c.331.121.618.341.823.631.127.226.2.48.213.74.12 1.088.265 2.177.398 3.252.707 3.991.864 8.062.465 12.097a4.49 4.49 0 01-1.713 3.145c-.95.63-2.067.949-3.2.914l.557 8.145a5.662 5.662 0 01-2.098 3.79 4.89 4.89 0 01-2.948.927zm-8.42-6.842a10.523 10.523 0 006.999 5.457 3.943 3.943 0 003.448-.361 4.037 4.037 0 001.864-2.959l-.611-8.736a.622.622 0 01.186-.498.62.62 0 01.518-.16 4.458 4.458 0 003.027-.633 3.358 3.358 0 001.235-2.325 44.719 44.719 0 00-.464-11.76 129.985 129.985 0 01-.399-3.28v-.228l-.279-.148a9.157 9.157 0 01-4.342-4.153 7.017 7.017 0 01-.306-.686 2.53 2.53 0 00-.172-.403 1.548 1.548 0 00-.332 0c-.316.13-.611.307-.877.524-.212.135-.398.283-.558.363a28.898 28.898 0 01-10.624 3.817c.399 6.102 1.58 24.502 1.687 26.169z" fill="#231F20"/><path d="M240 57.972c-2.094.183-4.171-.527-5.806-1.986-1.356-1.226-2.158-3.049-2.194-4.986 2.369 1.469 5.028 2.269 7.742 2.329l.258 4.643z" fill="#231F20"/><path d="M238.83 57.977c-2.006.043-3.958-.707-5.491-2.11-1.46-1.305-2.315-3.242-2.339-5.293a.652.652 0 01.305-.497.521.521 0 01.547 0 14.819 14.819 0 007.346 2.234c.304-.002.558.25.584.579l.216 4.466c.023.323-.198.605-.495.634a3.61 3.61 0 01-.674-.013zm-6.61-6.314a6.589 6.589 0 001.868 3.308c1.34 1.196 3.032 1.827 4.767 1.779l-.166-3.268a15.333 15.333 0 01-6.469-1.82z" fill="#231F20"/><path d="M238.076 38s3.546 3.743 2.828 4.517c-.718.773-2.904.386-2.904.386" fill="#FFF"/><path d="M238.654 42.99a6.059 6.059 0 01-1.143-.1.608.608 0 01-.475-.355.496.496 0 01.113-.538.675.675 0 01.588-.184c.692.124 1.807.124 2.089-.185a14.487 14.487 0 00-2.625-3.75.497.497 0 01-.126-.405.535.535 0 01.239-.363.687.687 0 01.464-.104.64.64 0 01.41.216c2.372 2.71 3.247 4.443 2.612 5.148-.586.46-1.363.684-2.146.62zm-.872 5.01h-.247c-3.034-.157-5.313-2.952-5.409-3.07a.555.555 0 01-.08-.572.603.603 0 01.48-.353.622.622 0 01.561.22s2.046 2.495 4.503 2.612c1.313.016 2.56-.548 3.377-1.528a.64.64 0 01.85 0 .561.561 0 01.183.411.561.561 0 01-.182.412c-1.005 1.141-2.473 1.82-4.036 1.868z" fill="#231F20"/><path d="M242.674 171L233 211s48.185-16.395 49.919-21.748c1.734-5.354-24.92.807-24.92.807l1.893-11.433L242.674 171z" fill="#FFF"/><path d="M232.663 211.997a.671.671 0 01-.523-.258.664.664 0 01-.12-.569l9.785-39.659a.667.667 0 01.924-.453l17.426 7.561a.693.693 0 01.402.72l-1.73 10.362c5.362-1.174 22.01-4.534 24.704-1.574.467.494.598 1.215.335 1.84-1.81 5.481-45.949 20.323-50.935 21.99a.552.552 0 01-.268.04zm10.254-39.392l-9.302 37.699c18.765-6.308 47.785-17.19 48.978-20.75.094-.32 0-.44-.067-.533-1.836-2.014-15.937.28-24.395 2.2a.673.673 0 01-.603-.173.665.665 0 01-.202-.6l1.837-10.816-16.246-7.027z" fill="#231F20"/><path d="M201.704 127.264s-6.729 28.039 6.556 31.844c13.285 3.805 35.51-11.416 35.51-11.416l-7.195 26.05s-4.824 11.762 2.172 11.241c6.303-8.184 14.91-10.347 20.827-5.741 9.26-10.294 25.516-42.632 15.017-53.727-10.5-11.095-72.887 1.75-72.887 1.75z" fill="#231F20"/><path d="M237.819 185.973a3.577 3.577 0 01-3.086-1.398c-2.248-3.09.691-10.32.811-10.654l6.744-24.397c-5.015 3.21-22.972 13.93-34.585 10.654-13.648-3.902-7.236-31.309-6.957-32.467a.586.586 0 01.453-.44c2.567-.533 62.731-12.758 73.307-1.571 10.575 11.186-5.321 43.693-14.978 54.374a.585.585 0 01-.799.08 10.633 10.633 0 00-7.98-2.158c-4.257.546-8.487 3.303-11.973 7.778a.559.559 0 01-.412.226l-.545-.027zm5.454-38.38a.572.572 0 01.345.12c.202.139.292.39.227.626l-7.144 25.942c-.798 1.984-2.514 7.43-.957 9.575a2.486 2.486 0 002.261.906c3.618-4.595 8.061-7.431 12.557-7.99a11.749 11.749 0 018.46 2.05c9.178-10.56 24.542-41.923 14.632-52.39-9.91-10.467-66.682.813-71.83 1.851-.719 3.263-5.56 27.327 6.212 30.63 12.823 3.662 34.744-11.16 34.957-11.306a.611.611 0 01.28-.054v.04zM232 211.687s5.333 5.204 20.534 0c15.2-5.204 34.4-19.157 29.76-21.467-4.64-2.31-45.147 14.179-50.294 21.467z" fill="#231F20"/><path d="M240.993 214c-6.152 0-8.663-2.332-8.81-2.477a.576.576 0 01-.08-.75c5.05-7.102 45.46-24.176 50.868-21.489a1.737 1.737 0 011.023 1.726c-.319 4.559-17.554 16.14-30.749 20.658A38.4 38.4 0 01240.993 214zm-7.574-2.99c1.502.987 7.176 3.741 19.44-.449 13.289-4.545 29.713-15.915 29.966-19.63a.58.58 0 00-.386-.606c-3.986-1.99-42.708 13.346-49.02 20.684z" fill="#231F20"/><path d="M260 188.17a69.706 69.706 0 00-10 4.83l.537-6.295s7.746-3.928 9.463-3.695v5.16z" fill="#FFF"/><path d="M249.63 193a.583.583 0 01-.32-.093.657.657 0 01-.306-.635l.523-6.078a.636.636 0 01.345-.53c1.275-.648 7.819-3.866 9.58-3.654a.64.64 0 01.548.662v4.992a.675.675 0 01-.408.622 67.85 67.85 0 00-9.606 4.608.67.67 0 01-.357.106zm1.135-6.316l-.383 4.41a79.118 79.118 0 018.342-3.88v-3.84a48.416 48.416 0 00-7.96 3.31z" fill="#231F20"/><path d="M218 61s-47.913 19.596-51.974 25.103C161.966 91.61 155 125 155 125l14.476-2.099s13.096-20.718 17.157-25.102c4.06-4.385 27.002-10.52 27.002-10.52L218 61z" fill="#80A43F"/><path d="M177 113.302l-9.896 16.713s8.413 6.653 6.364 7.744c-2.05 1.092-4.045 1.956-4.045 1.956s-.216 5.47-2.696 6.122c-2.481.652-16.327-.56-15.707-5.243 2.157-16.155 4.84-34.531 4.665-32.429L177 113.302z" fill="#FFF"/><path d="M165.237 145.998c-3.674 0-10.274-.91-12.96-3.232a3.123 3.123 0 01-1.256-2.876c.895-6.794 2.004-14.763 3.02-21.847.895-6.188 1.336-8.932 1.59-10.132a.521.521 0 010-.145.195.195 0 000 .092c.227-.897.4-.884.721-.844.192.014.368.11.481.264l20.643 5a.692.692 0 01.454.382.665.665 0 010 .594l-9.54 16.055c2.005 1.623 6.587 5.541 6.414 7.428a1.24 1.24 0 01-.668.99 75.771 75.771 0 01-3.621 1.794c-.107 1.411-.628 5.607-3.087 6.266a9.59 9.59 0 01-2.19.211zm-8.444-37.362c-.561 3.47-2.672 17.731-4.45 31.426a1.904 1.904 0 00.816 1.715c2.966 2.559 12.025 3.258 13.909 2.757 1.59-.422 2.084-4.169 2.137-5.449a.66.66 0 01.388-.567s1.924-.87 3.915-1.926c.08-.7-2.9-3.813-6.4-6.597a.641.641 0 01-.16-.844l9.352-15.831-19.507-4.684z" fill="#231F20"/><path d="M306.643 45c0-.669-6.643-23.107-6.643-23.107l14.378-5.004s-.215-5.272 2.87-7.252c3.087-1.98 7.304 0 7.304 0s12.6-10.53 14.15-8.336c1.55 2.194-3.1 7.024-10.174 12.042 0 0 3.76 10.543-.445 13.835a16.153 16.153 0 01-8.584 3.438L306.643 45z" fill="#FFF"/><path d="M306.252 44.99a.766.766 0 01-.24 0 .651.651 0 01-.428-.584c-.147-.93-4.009-14.124-6.56-22.8a.69.69 0 01.427-.824l13.803-4.81c0-1.42.36-5.487 3.153-7.28 2.793-1.794 6.307-.678 7.483-.213C326.282 6.5 334.753-.37 337.6.016c.396.042.755.25.988.57 2.218 3.15-5.024 9.142-9.848 12.623.695 2.166 3.194 10.868-.815 14.004a16.9 16.9 0 01-8.605 3.548l-12.573 14.043a.67.67 0 01-.495.186zm-5.759-23.171c2.045 6.962 5.104 17.392 6.093 21.152l11.92-13.287a.71.71 0 01.467-.225 15.455 15.455 0 008.124-3.269c3.113-2.445 1.216-10.204.227-12.994a.662.662 0 01.24-.758c8.151-5.819 10.85-9.765 9.929-11.08-.95-.572-7.029 3.374-13.055 8.423a.658.658 0 01-.708.08s-3.889-1.767-6.601 0c-2.713 1.767-2.539 6.563-2.539 6.643a.665.665 0 01-.454.651l-13.643 4.664z" fill="#231F20"/><path d="M251.637 110h-.125a.615.615 0 01-.5-.72c4.067-19.248 7.926-53.858 7.732-55.54a.568.568 0 01.064-.45.61.61 0 01.38-.271.655.655 0 01.79.454c.348 1.241-3.65 36.786-7.717 56.06a.648.648 0 01-.624.467zm-61.048-16a.606.606 0 01-.198-1.171l26.858-8.811a.606.606 0 01.382 1.144l-26.858 8.811a.475.475 0 01-.184.026zm134.244-71.01a1.559 1.559 0 01-.35 0c-2.115-.467-3.838-2.024-4.545-4.107-.195 1.84-1.431 3.394-3.16 3.97a.584.584 0 01-.599-.14.61.61 0 01-.154-.605.596.596 0 01.457-.419c3-.794 2.475-6.12 2.461-6.174a.614.614 0 01.525-.671.62.62 0 01.659.52s.833 5.75 4.532 6.312a.665.665 0 00.685-.22c1.345-1.505-.134-8.584-1.344-12.677a.604.604 0 01.39-.753.582.582 0 01.454.048.6.6 0 01.285.362c.336 1.15 3.228 11.31 1.09 13.815a1.78 1.78 0 01-1.386.74z" fill="#231F20"/><path d="M24.179 205.033C22.207 201.038 2.959 167.493 0 146c0 0-.341 41.881 16.856 63.44 17.197 21.56 7.323-4.407 7.323-4.407z" fill="#FFCD31"/><path fill="#231F20" d="M228.66 36L222 38.654V40l9-2.446z"/><path d="M222.576 41a.542.542 0 01-.353-.13.646.646 0 01-.223-.505v-1.59a.643.643 0 01.34-.591l6.548-3.134c.186-.087.4-.06.563.072l2.317 1.849a.667.667 0 01.223.62.604.604 0 01-.406.506l-8.917 2.889-.092.014zm.576-1.805v.317l7.045-2.281-1.087-.867-5.958 2.83z" fill="#231F20"/><path d="M226.931 41.749c-1.048-1.204-2.758-3.406-4.675-2.56a3.19 3.19 0 00-1.296 1.024c-1.32 1.858-1.275 4.277.11 6.093 1.034 1.64 4.137 4.02 5.93 1.78" fill="#FFF"/><path d="M224.605 50h-.174a6.492 6.492 0 01-4.339-3.193 6.588 6.588 0 010-7.266 3.79 3.79 0 011.5-1.293c2.196-1.005 4.017 1.28 5.022 2.642l.24.317a.66.66 0 01-.08.894.605.605 0 01-.87-.096l-.255-.33c-1.178-1.528-2.343-2.835-3.561-2.285-.41.209-.76.521-1.018.908a5.335 5.335 0 00.147 5.863 5.199 5.199 0 003.348 2.573 1.595 1.595 0 001.339-.73c.208-.27.59-.32.857-.11a.632.632 0 01.107.88A2.778 2.778 0 01224.605 50z" fill="#231F20"/><ellipse fill="#FFF" transform="rotate(-6.07 232.913 35.31)" cx="232.913" cy="35.309" rx="4.073" ry="3.128"/><path d="M232.288 38.983c-2.01.194-3.84-1.29-4.27-3.463-.219-2.177 1.628-4.241 4.104-4.482a4.834 4.834 0 013.219.735c.905.556 1.514 1.554 1.642 2.686.218 2.177-1.63 4.241-4.105 4.482a4.137 4.137 0 01-.59.042zm.436-6.687h-.487c-1.821.212-3.193 1.584-3.052 3.054.14 1.47 1.731 2.488 3.578 2.276 1.847-.212 3.206-1.583 3.065-3.054-.107-.731-.514-1.368-1.103-1.724a3.57 3.57 0 00-2-.552z" fill="#231F20"/><ellipse fill="#FFF" transform="rotate(-6.07 241.249 34.91)" cx="241.249" cy="34.909" rx="4.073" ry="3.128"/><path d="M241.282 38.983c-2.01.194-3.836-1.292-4.266-3.469-.205-2.18 1.64-4.248 4.1-4.488 2.46-.241 4.663 1.246 4.868 3.426.205 2.18-1.627 4.248-4.1 4.474l-.602.057zm.449-6.697h-.487c-1.832.212-3.203 1.586-3.062 3.058.14 1.473 1.755 2.492 3.574 2.28 1.82-.213 3.203-1.586 3.062-3.059-.377-1.512-1.706-2.484-3.113-2.28h.026z" fill="#231F20"/><circle fill="#FFF" cx="74" cy="174" r="6"/><path d="M74.014 181a7 7 0 11-.028-14 7 7 0 01.028 14zm0-12.619a5.633 5.633 0 10-.027 11.266 5.633 5.633 0 00.027-11.266z" fill="#D1D3D4"/><circle fill="#FFF" cx="306" cy="98" r="3"/><path d="M305.513 102a3.5 3.5 0 11-.025-7 3.5 3.5 0 01.025 7zm0-5.754a2.254 2.254 0 10-.025 4.509 2.254 2.254 0 00.025-4.51z" fill="#D1D3D4"/><circle fill="#D1D3D4" cx="349" cy="85" r="6"/><circle fill="#FFF" cx="359.5" cy="278.5" r="34.5"/><path d="M359.002 313c-18.117 0-33.239-13.824-34.86-31.867-1.62-18.042 10.796-34.34 28.622-37.568 17.827-3.229 35.171 7.678 39.983 25.142a35.008 35.008 0 01-5.909 30.498A35.015 35.015 0 01359.002 313zm0-68.686a33.692 33.692 0 00-31.93 22.907 33.687 33.687 0 0011.497 37.574 33.695 33.695 0 0039.281 1.125 33.687 33.687 0 0013.627-36.856c-4.04-14.61-17.328-24.734-32.488-24.75h.013z" fill="#D1D3D4"/><path d="M317.759 297c-6.195 0-11.803-.896-12.658-4.014-1.375-5.124 11.59-11.814 19.48-15.372a.672.672 0 01.534 1.23c-14.793 6.596-19.373 11.44-18.692 13.781.681 2.341 7.063 4.174 23.126 2.248a249.286 249.286 0 0064.37-17.714c14.78-6.57 19.36-11.426 18.692-13.78-.667-2.356-7.05-4.162-23.125-2.235a.673.673 0 01-.16-1.338c8.572-1.03 23.152-1.967 24.567 3.211 1.416 5.178-11.576 11.854-19.454 15.346a249.594 249.594 0 01-64.797 17.874c-3.943.483-7.91.738-11.883.763zM288.5 269c-.276 0-.5-.292-.5-.653v-7.694c0-.36.224-.653.5-.653s.5.292.5.653v7.694c0 .36-.224.653-.5.653z" fill="#D1D3D4"/><path d="M293.347 265h-7.694c-.36 0-.653-.224-.653-.5.007-.274.295-.495.653-.5h7.694c.36 0 .653.224.653.5s-.292.5-.653.5zM379.5 110c-.276 0-.5-.292-.5-.653v-7.694c0-.36.224-.653.5-.653s.5.292.5.653v7.694c0 .36-.224.653-.5.653z" fill="#D1D3D4"/><path d="M383.347 106h-7.694c-.36 0-.653-.224-.653-.5s.292-.5.653-.5h7.694c.36 0 .653.224.653.5-.007.274-.295.495-.653.5zM49.5 282c-.276 0-.5-.292-.5-.653v-7.694c0-.36.224-.653.5-.653s.5.292.5.653v7.694c0 .36-.224.653-.5.653z" fill="#D1D3D4"/><path d="M53.347 278h-7.694c-.358-.005-.646-.226-.653-.5 0-.276.292-.5.653-.5h7.694c.36 0 .653.224.653.5s-.292.5-.653.5zM128.5 114c-.276 0-.5-.292-.5-.653v-7.694c0-.36.224-.653.5-.653s.5.292.5.653v7.76c-.026.334-.242.589-.5.587z" fill="#D1D3D4"/><path d="M132.347 110h-7.694c-.36 0-.653-.224-.653-.5s.292-.5.653-.5h7.694c.36 0 .653.224.653.5s-.292.5-.653.5z" fill="#D1D3D4"/></g></svg>