<svg width="100" height="28" fill="none" xmlns="http://www.w3.org/2000/svg"><g clip-path="url(#clip0)" fill="#000"><path d="M13.322.194H.422L0 2.884h4.7l-1.394 8.688H6.84L8.2 2.885h4.7l.421-2.69zM72.22.194h-12.9l-.422 2.69h4.7l-1.361 8.688h3.5l1.394-8.687H71.8l.421-2.69zM84.7 2.788l.422-2.594h-11.67L71.67 11.572h11.767l.421-2.658h-8.363l.292-1.848h8.039l.421-2.593h-8.038l.259-1.685H84.7zM17.115.194L9.92 11.572h3.598l1.297-2.075h6.742l.778 2.075h3.598L21.588.194h-4.473zm-.745 6.743l2.658-4.28 1.556 4.28H16.37zM31.702.194h-3.469l-1.815 11.378h11.086l.454-2.82H30.34L31.702.194zM40.551.194l-1.815 11.378h3.468L44.02.194H40.55zM52.188 0h-.972c-5.09 0-6.192 1.459-6.451 3.015-.032.226-.032.356-.032.583 0 1.75 1.102 3.242 5.056 3.306l1.88.033c2.205.065 2.561.389 2.561 1.005 0 .55-.227 1.329-3.403 1.329h-.195c-2.852 0-3.08-1.07-3.08-1.816h-3.597c-.195 1.621.259 4.247 5.996 4.247h1.005c5.576 0 6.58-1.686 6.905-3.339.032-.227.065-.551.065-.843 0-2.14-1.46-3.112-5.479-3.209L50.6 4.28c-2.075-.033-2.27-.519-2.27-.94 0-.454.163-1.038 3.015-1.038h.227c2.885 0 3.015.94 3.047 1.362h3.566C58.445 1.88 57.439 0 52.188 0zM100 2.95c0-1.491-.94-2.756-4.279-2.756H86.71l-1.815 11.378h3.468l.648-4.02h4.474c1.782 0 2.236.681 2.042 2.01l-.195 1.264c-.065.487-.032.649.033.778h3.533v-.064c-.032-.195-.13-.487 0-1.297l.292-1.913c.259-1.458-.681-2.171-1.718-2.495C98.509 5.51 100 4.7 100 2.95zm-5.316 2.074H89.4l.357-2.236h5.251c.94 0 1.264.389 1.264 1.004 0 .584-.421 1.232-1.588 1.232zM30.146 20.616c-1.135 3.436-3.306 5.77-6.062 6.807l-.907-1.135c1.231-.454 2.236-1.07 3.241-2.01-.389-.388-1.037-.875-1.685-1.231l.907-1.005c.68.324 1.264.745 1.686 1.102.421-.519.875-1.361 1.2-2.107h-2.821c-.616.908-1.329 1.88-2.463 2.82l-.94-1.037c1.588-1.2 2.625-2.658 3.047-4.473l1.36.13c-.161.388-.29.81-.388 1.199h3.047l.778.94zM36.953 23.922h-1.394v-5.089h1.394v5.09zm-.324 2.172c1.912-.584 2.982-1.88 2.982-3.63v-3.89h1.361v3.922c0 2.334-1.231 4.02-3.598 4.895a16.831 16.831 0 00-.745-1.297zM53.614 26.97c-.713-.909-1.75-2.075-2.787-3.015-1.524 1.555-2.788 2.43-4.15 3.014l-.777-1.297c2.333-.907 4.473-2.884 5.705-5.25h-4.668V19.06h5.64l.843.843a13.836 13.836 0 01-1.75 3.014c1.166 1.005 2.3 2.107 2.982 2.917l-1.038 1.135zM65.9 20.616c-1.135 3.436-3.307 5.77-6.062 6.807l-.908-1.135c1.232-.454 2.237-1.07 3.242-2.01-.39-.388-1.037-.875-1.686-1.231l.908-1.005a7.98 7.98 0 011.685 1.102c.422-.519.876-1.361 1.2-2.107h-2.82c-.616.908-1.33 1.88-2.464 2.82l-.94-1.037c1.588-1.2 2.626-2.658 3.047-4.473l1.362.13c-.163.388-.292.81-.39 1.199h3.048l.778.94zM77.73 23.176h-7.066v-.907h7.067v.907z"/></g><defs><clipPath id="clip0"><path fill="#fff" d="M0 0h100v27.423H0z"/></clipPath></defs></svg>