<svg width="96" height="19" fill="none" xmlns="http://www.w3.org/2000/svg"><path d="M21.616 2.886h-4.037a.73.73 0 01-.737-.715.748.748 0 01.736-.736h9.663a.747.747 0 01.735.736.729.729 0 01-.735.715h-4.035v11.77a.796.796 0 01-1.59 0V2.887zM32.352 15.591c-2.824 0-5.13-2.167-5.13-5.348v-.04c0-2.962 2.087-5.348 4.931-5.348 3.042 0 4.772 2.485 4.772 5.21a.711.711 0 01-.716.715h-7.436c.219 2.227 1.79 3.478 3.618 3.478 1.276 0 2.208-.497 2.963-1.193a.66.66 0 011.114.477.658.658 0 01-.24.497c-.973.936-2.127 1.552-3.876 1.552zm3.042-5.945c-.16-1.869-1.233-3.499-3.28-3.499-1.79 0-3.142 1.491-3.34 3.5h6.62zM43.944 15.591c-2.824 0-5.13-2.167-5.13-5.348v-.04c0-2.962 2.086-5.348 4.93-5.348 3.043 0 4.772 2.485 4.772 5.21a.713.713 0 01-.715.715h-7.436c.218 2.227 1.79 3.478 3.618 3.478 1.272 0 2.207-.497 2.963-1.193a.661.661 0 011.113.477.66.66 0 01-.239.497c-.974.936-2.127 1.552-3.877 1.552zm3.04-5.945c-.159-1.869-1.232-3.499-3.28-3.499-1.79 0-3.142 1.491-3.34 3.5h6.62zM51 1.435h9.908a.613.613 0 01.613.614V4.2a.614.614 0 01-.613.614h-6.05a.613.613 0 00-.613.614v1.139a.614.614 0 00.613.611h5.354a.614.614 0 01.613.614v1.97a.614.614 0 01-.613.615h-5.354a.613.613 0 00-.613.613v3.743a.615.615 0 01-.614.618H51a.613.613 0 01-.614-.614V2.049a.614.614 0 01.614-.613zM62.793 11.673V5.28a.627.627 0 01.626-.626h2.526a.626.626 0 01.626.626v5.2c0 1.173.616 1.81 1.53 1.81.916 0 1.591-.638 1.591-1.81v-5.2a.627.627 0 01.627-.626h2.505a.626.626 0 01.626.626v9.506a.626.626 0 01-.626.627H70.32a.626.626 0 01-.627-.627v-.867c-.695.895-1.69 1.73-3.22 1.73-2.287 0-3.679-1.53-3.679-3.976zM76.117 4.596h2.565a.607.607 0 01.607.606v1.561c.58-1.38 1.489-2.305 3.077-2.349a.317.317 0 01.323.318v3.344a.318.318 0 01-.318.318c-1.971 0-3.082 1.133-3.082 3.599v2.753a.607.607 0 01-.607.606h-2.565a.606.606 0 01-.606-.606V5.202a.606.606 0 01.606-.606zM92.028 4.596h2.502a.631.631 0 01.591.853l-3.619 9.645c-.934 2.525-1.949 3.5-4.096 3.5a6.62 6.62 0 01-2.898-.65.632.632 0 01-.307-.822l.651-1.493a.633.633 0 01.836-.324c.412.182.794.286 1.082.286.378 0 .638-.099.895-.437l-3.87-9.692a.632.632 0 01.587-.866h2.55a.631.631 0 01.6.433l2.004 6.049 1.89-6.039a.631.631 0 01.602-.443zM14.426 2.434a.928.928 0 00-1.382.1l-.152.197a.933.933 0 00.09 1.232 6.377 6.377 0 01-4.996 10.868c-3.117-.232-5.635-2.75-5.867-5.866a6.381 6.381 0 016.156-6.86v.008L5.435 9.54h2.471L6.3 13.851l6.242-5.935H9.493l2.19-5.78c.082-.214.123-.44.123-.67 0-1.02-1.522-1.333-2.508-1.426L9.215.034a12.197 12.197 0 00-.29-.02L8.857.01C8.639 0 8.495 0 8.476 0h-.003C3.665 0-.222 4.026.01 8.883c.2 4.337 3.721 7.86 8.06 8.061 4.859.227 8.884-3.66 8.884-8.469a8.415 8.415 0 00-2.528-6.041z" fill="#000"/></svg>