<svg xmlns="http://www.w3.org/2000/svg" width="320" height="70.156"><path d="M112.347 17.065H98.268a2.4 2.4 0 00-2.346 2.346v3.146a1.5 1.5 0 001.546 1.493h2.346c.053 0 .16.053.16.107a.4.4 0 01.053.267l-5.492 16.531a.293.293 0 01-.267.16c-.107 0-.213-.053-.213-.16l-8.212-22.4a1.594 1.594 0 00-1.333-.96h-4.959a1.594 1.594 0 00-1.333.96l-8.266 22.4c0 .107-.107.16-.213.16a.293.293 0 01-.267-.16l-5.493-16.531a.481.481 0 01.053-.267c.053-.053.107-.107.16-.107h2.346a1.537 1.537 0 001.546-1.493v-3.146a2.367 2.367 0 00-2.346-2.346H51.661a1.759 1.759 0 00-1.28.64 1.387 1.387 0 00-.213 1.28c.213.587.427 1.28.693 1.973s.48 1.386.693 1.973A1.537 1.537 0 0052.994 24h2.346a.272.272 0 01.267.213l10.932 32.206a1.537 1.537 0 001.44 1.067h3.413a1.566 1.566 0 001.44-.96c3.04-8.692 8.746-25.33 9.012-25.863a.354.354 0 01.267-.213.272.272 0 01.267.213c.213.587 5.973 17.171 9.012 25.917a1.561 1.561 0 001.44 1.013h3.413a1.537 1.537 0 001.44-1.067l10.932-32.209c.106-.213.213-.213.266-.213h2.347a1.559 1.559 0 001.439-1.013c.214-.64.48-1.333.694-1.973.213-.693.48-1.386.693-1.973a1.388 1.388 0 00-.213-1.28 2.2 2.2 0 00-1.494-.8zM277.232 50.98h-2.56a.8.8 0 01-.746-.747V18.5a1.012 1.012 0 00-1.013-1.013h-7.519a1.042 1.042 0 00-.8.373l-3.094 3.897a.931.931 0 00-.213.64 1.1 1.1 0 001.013 1.066h.96a.8.8 0 01.746.747v25.97a.8.8 0 01-.213.587c-.8 1.067-2.613 3.306-3.466 4.426a1.123 1.123 0 00-.267.693 1.1 1.1 0 001.013 1.067h13.065a1.277 1.277 0 00.747-.267l3.039-3.84a1.093 1.093 0 00-.692-1.866zM268.913 13.225a5.6 5.6 0 10-5.6-5.6 5.6 5.6 0 005.6 5.6zM318.294 20.8a.963.963 0 00-1.014-1.066H316v3.413h.48v-1.28h.427l.853 1.28h.587l-.907-1.28a.955.955 0 00.854-1.067zm-1.814.64v-1.28h.854a.548.548 0 01.533.587v.053a.591.591 0 01-.533.64h-.854z" fill="#7f187f"/><path d="M317.067 18.5A2.933 2.933 0 10320 21.437a2.959 2.959 0 00-2.933-2.937zm0 5.439a2.5 2.5 0 01-2.506-2.506v-.053a2.481 2.481 0 012.453-2.453h.053a2.5 2.5 0 012.506 2.506 2.538 2.538 0 01-2.506 2.511zM149.088 51.14c-2.186.107-3.252-.906-3.252-3.413V29.916c0-7.786-6.56-12.745-13.865-12.745-11.412 0-15.518 5.439-16 11.465a1.068 1.068 0 001.013 1.12h5.652a1.04 1.04 0 001.014-.96 5.67 5.67 0 015.972-5.493c3.946 0 6.293 1.973 6.293 6.506V33.7h-2.025c-7.039 0-11.838.906-15.091 2.933s-4.906 5.813-4.906 10.185a10.623 10.623 0 003.36 8.052 11.18 11.18 0 008.265 3.04 14.3 14.3 0 005.919-1.333 17.981 17.981 0 004.96-3.2.758.758 0 011.066.053c.054.053.107.107.107.16 1.6 2.826 3.359 3.733 6.666 3.733 2.986 0 4.426-2.826 5.759-4.479a1.1 1.1 0 00-.907-1.704zm-13.118-2.826c-.053.267-.426.587-.586.747a13.581 13.581 0 01-2.987 1.92 6.813 6.813 0 01-3.093.586 5.552 5.552 0 01-4.104-1.707 5.929 5.929 0 01-1.546-4.159 5.4 5.4 0 012.613-5.013c1.759-1.173 4.586-1.706 8.052-1.706h1.706zm120.2 2.826c-2.186.107-3.253-.906-3.253-3.413V29.916c0-7.786-6.559-12.745-13.865-12.745-11.412 0-15.518 5.439-16 11.465a1.07 1.07 0 001.014 1.12h5.652a1.04 1.04 0 001.013-.96A5.671 5.671 0 01236.7 23.3c3.946 0 6.292 1.973 6.292 6.506V33.7h-2.022c-7.039 0-11.838.906-15.091 2.933s-4.906 5.813-4.906 10.185a10.622 10.622 0 003.359 8.052 11.184 11.184 0 008.266 3.04 14.306 14.306 0 005.919-1.333 17.96 17.96 0 004.959-3.2.759.759 0 011.067.053c.053.053.107.107.107.16 1.6 2.826 3.359 3.733 6.665 3.733 2.987 0 4.426-2.826 5.76-4.479a1.137 1.137 0 00-.907-1.704zM243 48.314c-.053.267-.426.587-.586.747a13.6 13.6 0 01-2.986 1.92 6.816 6.816 0 01-3.093.586 5.554 5.554 0 01-4.107-1.706 5.934 5.934 0 01-1.546-4.159 5.4 5.4 0 012.613-5.013c1.76-1.173 4.586-1.706 8.052-1.706h1.707v9.332zm66.232-30.929a8.316 8.316 0 00-2.933-.427 11.494 11.494 0 00-4.533.8l-.106.053a6.812 6.812 0 00-1.334.8 18.463 18.463 0 00-4.212 3.626c-1.227 1.44-.534.427-.64-.267v-3.52a1.106 1.106 0 00-1.067-1.067h-7.519a.932.932 0 00-.746.373c-.214.213-2.347 2.933-3.147 3.946a1.053 1.053 0 00.8 1.706h.96a.729.729 0 01.747.747v26.079a1.081 1.081 0 01-.16.587 259.77 259.77 0 00-3.52 4.426.931.931 0 00-.213.64 1.1 1.1 0 001.013 1.067h16.158a1.07 1.07 0 001.067-1.067v-3.894a1.07 1.07 0 00-1.067-1.067h-2.56a.729.729 0 01-.746-.746v-15.2c.266-7.252 4.586-9.439 6.666-10.079l.319-.107h.107a6.246 6.246 0 011.707-.213 15.269 15.269 0 014.692.693c.534.16 1.067-.48 1.067-1.067v-5.916a1.349 1.349 0 00-.804-.907zm-87.989.107h-11.736a.729.729 0 01-.746-.747v-5.813c0-2.826 1.44-5.6 4.426-5.6 3.413 0 3.946 2.88 4.053 5.013a1.135 1.135 0 001.013 1.013h4.853a1 1 0 00.96-1.013C223.959 3.093 219.373 0 211.96 0c-4.479 0-7.465 1.386-9.652 4.106-2.239 2.72-3.359 5.706-3.359 11.145v1.44a.8.8 0 01-.747.747l-20 .053h-.054a1.013 1.013 0 00-1.013 1.013v3.946a1.07 1.07 0 001.067 1.066h2.133a.729.729 0 01.746.747.4.4 0 01-.053.267c-.053.107-5.493 12.8-7.732 17.971a.716.716 0 01-.694.427.768.768 0 01-.693-.427c-2.293-5.173-7.839-17.971-7.839-17.971a.483.483 0 01-.053-.267.729.729 0 01.746-.747h1.494a1.07 1.07 0 001.066-1.066V18.5a1.013 1.013 0 00-1.013-1.013h-18.128a1.106 1.106 0 00-1.067 1.066 1.568 1.568 0 00.107.48c.533.96 1.76 3.253 2.08 3.946a1.013 1.013 0 00.853.533h3.466a.831.831 0 01.693.427c.107.267 12.852 28.9 13.332 29.916a5.734 5.734 0 010 4c-.587 2.346-4.533 6.613-6.719 5.813-1.493-.533-1.707-3.253-3.52-3.573a1.917 1.917 0 00-.96.107c-.319.107-3.252 3.893-3.892 4.533a1.121 1.121 0 000 1.386 11.9 11.9 0 008.159 4c4.746.213 9.492-.427 13.811-8.746 0 0 13.865-33.862 15.518-37.542a.723.723 0 01.693-.373h7.306a.729.729 0 01.747.747v26.027a.8.8 0 01-.214.587c-.853 1.12-2.613 3.306-3.466 4.426a.931.931 0 00-.213.64 1.013 1.013 0 001.013 1.013h16.371a1.07 1.07 0 001.067-1.066V51.94a1.07 1.07 0 00-1.067-1.066h-2.666a.8.8 0 01-.747-.747V24.1a.8.8 0 01.747-.747h8.639a1.042 1.042 0 00.8-.373c.746-.96 2.24-2.88 2.986-3.946a.931.931 0 00.213-.64 1.038 1.038 0 00-1.013-.903z" fill="#7f187f"/><path d="M44.729 30.023L41.9 19.358a1.056 1.056 0 00-.747-.747L30.49 15.785a.9.9 0 00-.96.267l-7.092 7.2 14.931 14.93 7.146-7.146a1.129 1.129 0 00.214-1.013z" fill="#82d170"/><path d="M.094 46.287l2.827 10.666a1.056 1.056 0 00.747.747l10.665 2.826a.9.9 0 00.96-.267l7.146-7.146L7.507 38.182.361 45.328a.954.954 0 00-.267.959z" fill="#f8cf1c"/><path d="M14.279 15.838L3.614 18.664a1.056 1.056 0 00-.747.747L.041 30.076a.9.9 0 00.267.96l7.2 7.146 14.93-14.932-7.146-7.15a1.015 1.015 0 00-1.013-.262z" fill="#c6d636"/><path d="M44.409 45.221l-7.039-7.039-14.932 14.931 7.039 7.039a1.3 1.3 0 001.226.32L41.049 57.7a1.3 1.3 0 00.907-.907l2.773-10.345a1.3 1.3 0 00-.32-1.227z" fill="#d57dea"/><path d="M22.438 23.25L7.507 38.182l14.931 14.931 14.931-14.931z" fill="#7f187f"/><path d="M44.729 30.023L41.9 19.358a1.056 1.056 0 00-.747-.747L30.49 15.785a.9.9 0 00-.96.267l-7.092 7.2 14.931 14.93 7.146-7.146a1.129 1.129 0 00.214-1.013z" fill="#82d170"/><path d="M.094 46.287l2.827 10.666a1.056 1.056 0 00.747.747l10.665 2.826a.9.9 0 00.96-.267l7.146-7.146L7.507 38.182.361 45.328a.954.954 0 00-.267.959z" fill="#f8cf1c"/><path d="M14.279 15.838L3.614 18.664a1.056 1.056 0 00-.747.747L.041 30.076a.9.9 0 00.267.96l7.2 7.146 14.93-14.932-7.146-7.15a1.015 1.015 0 00-1.013-.262z" fill="#c6d636"/><path d="M44.409 45.221l-7.039-7.039-14.932 14.931 7.039 7.039a1.3 1.3 0 001.226.32L41.049 57.7a1.3 1.3 0 00.907-.907l2.773-10.345a1.3 1.3 0 00-.32-1.227z" fill="#d57dea"/><path d="M22.438 23.25L7.507 38.182l14.931 14.931 14.931-14.931z" fill="#7f187f"/></svg>